<mxfile host="app.diagrams.net" agent="Mozilla/5.0 (Windows NT 10.0; Win64; x64) AppleWebKit/537.36 (KHTML, like Gecko) Chrome/135.0.0.0 Safari/537.36" version="26.2.10">
  <diagram id="lr50Nq3O_Wpqp5DX5Pws" name="Page-1">
    <mxGraphModel dx="2440" dy="1917" grid="1" gridSize="10" guides="1" tooltips="1" connect="1" arrows="1" fold="1" page="1" pageScale="1" pageWidth="827" pageHeight="1169" math="0" shadow="0">
      <root>
        <mxCell id="0" />
        <mxCell id="1" parent="0" />
        <mxCell id="AQJ6SZYPFtqUvpiH9dMF-2" value="&lt;font&gt;&lt;i&gt;&lt;font style=&quot;font-size: 14px&quot;&gt;(Aperiodic task)&lt;br&gt;&lt;/font&gt;&lt;/i&gt;&lt;font size=&quot;4&quot;&gt;Start_camera&lt;/font&gt;&lt;br&gt;&lt;font size=&quot;4&quot;&gt;(Task_name, Priority : x)&lt;/font&gt;&lt;br&gt;&lt;/font&gt;" style="ellipse;whiteSpace=wrap;html=1;aspect=fixed;fillColor=#dae8fc;strokeColor=#6c8ebf;" parent="1" vertex="1">
          <mxGeometry x="600" y="80" width="160" height="160" as="geometry" />
        </mxCell>
        <mxCell id="AQJ6SZYPFtqUvpiH9dMF-6" value="" style="group" parent="1" vertex="1" connectable="0">
          <mxGeometry x="405" y="440" width="200" height="70" as="geometry" />
        </mxCell>
        <mxCell id="AQJ6SZYPFtqUvpiH9dMF-7" value="" style="shape=message;html=1;whiteSpace=wrap;html=1;outlineConnect=0;" parent="AQJ6SZYPFtqUvpiH9dMF-6" vertex="1">
          <mxGeometry x="70" width="60" height="40" as="geometry" />
        </mxCell>
        <mxCell id="AQJ6SZYPFtqUvpiH9dMF-8" value="&lt;font style=&quot;font-size: 18px&quot;&gt;&lt;br&gt;&lt;br&gt;&lt;br&gt;MsgQ_Id&lt;br&gt;(MsgQ_Name&lt;br&gt;MsgQ_Size&lt;br&gt;Timeout)&lt;br&gt;&lt;/font&gt;" style="text;html=1;strokeColor=none;fillColor=none;align=center;verticalAlign=middle;whiteSpace=wrap;rounded=0;" parent="AQJ6SZYPFtqUvpiH9dMF-6" vertex="1">
          <mxGeometry y="50" width="200" height="20" as="geometry" />
        </mxCell>
        <mxCell id="u77WEAVTGqhgQh1Kb9vr-12" value="" style="edgeStyle=orthogonalEdgeStyle;rounded=0;orthogonalLoop=1;jettySize=auto;html=1;" parent="1" source="vNHuncRpDRN7U7_UvtcU-1" target="AQJ6SZYPFtqUvpiH9dMF-2" edge="1">
          <mxGeometry relative="1" as="geometry" />
        </mxCell>
        <object label="Cam_on&lt;br&gt;(Timeout)" id="vNHuncRpDRN7U7_UvtcU-1">
          <mxCell style="verticalLabelPosition=bottom;verticalAlign=top;html=1;shape=mxgraph.flowchart.collate;direction=south;rotation=90;" parent="1" vertex="1">
            <mxGeometry x="470" y="140" width="70" height="40" as="geometry" />
          </mxCell>
        </object>
        <mxCell id="u77WEAVTGqhgQh1Kb9vr-1" value="&lt;font style=&quot;font-size: 18px&quot;&gt;&lt;i style=&quot;font-size: 12px&quot;&gt;&lt;font style=&quot;font-size: 14px&quot;&gt;(Periodic task)&lt;br&gt;&lt;/font&gt;&lt;/i&gt;&lt;font size=&quot;4&quot;&gt;Task_Id&lt;/font&gt;&lt;br style=&quot;font-size: 12px&quot;&gt;&lt;font size=&quot;4&quot;&gt;(Task_name, Priority : x, &lt;br&gt;T : y ms)&lt;/font&gt;&lt;br&gt;&lt;/font&gt;" style="ellipse;whiteSpace=wrap;html=1;aspect=fixed;fillColor=#d5e8d4;strokeColor=#82b366;" parent="1" vertex="1">
          <mxGeometry x="2060" y="45" width="160" height="160" as="geometry" />
        </mxCell>
        <mxCell id="u77WEAVTGqhgQh1Kb9vr-2" value="&lt;font&gt;&lt;i&gt;&lt;font style=&quot;font-size: 14px&quot;&gt;(Aperiodic task)&lt;br&gt;&lt;/font&gt;&lt;/i&gt;&lt;font size=&quot;4&quot;&gt;Task_Id&lt;/font&gt;&lt;br&gt;&lt;font size=&quot;4&quot;&gt;(Task_name, Priority : x)&lt;/font&gt;&lt;br&gt;&lt;/font&gt;" style="ellipse;whiteSpace=wrap;html=1;aspect=fixed;fillColor=#dae8fc;strokeColor=#6c8ebf;" parent="1" vertex="1">
          <mxGeometry x="1830" y="45" width="160" height="160" as="geometry" />
        </mxCell>
        <mxCell id="u77WEAVTGqhgQh1Kb9vr-3" value="" style="group" parent="1" vertex="1" connectable="0">
          <mxGeometry x="1750" y="245" width="200" height="140" as="geometry" />
        </mxCell>
        <mxCell id="u77WEAVTGqhgQh1Kb9vr-4" value="" style="shape=image;verticalLabelPosition=bottom;labelBackgroundColor=#ffffff;verticalAlign=top;aspect=fixed;imageAspect=0;image=data:image/png,iVBORw0KGgoAAAANSUhEUgAAAIAAAACACAYAAADDPmHLAAAABHNCSVQICAgIfAhkiAAAAAlwSFlzAAALEwAACxMBAJqcGAAAEjNJREFUeJztnWtwVGWax//Pc07f0gk3kwVmRiWAEEKCN0ZdndFBFOUSGD9MSnedGqdqhprdWndrwQDi1MbsjIMm6Ey5n3TH1Q9b5Yi7hQRIxBoE2YHRiFNIbghIwohcBCR0bp3uPu+zH5JgyLUv59Knya8qVUn3Oc/7dN5/v7fzPO9LyDDKy4U772zI12IoFEg+CDMAvkFE8ogklxSmCJAlgBcMLwBAIUJAhIAuMC4qoYtEdB5QfyXiFmVIi6ZJk+/j4taKClLOfkJzIacdSJVnttZfb2i4WwH3EOG7UFQMRtCKshRUB4MaAKoTpfbDIwcql918yoqy7MJ1Aijf0+Lvbu9aBKilQrKUwbMddUipY2CuJUKtLxjcW7EoP+yoPwniCgGUb2nwdgXwMCspBctKgHOc9mk4RKkQMW9TSrZk9dB7FaVFEad9Gou0FsCGnU1zRKmfK4WfMCPPaX8S5CsI3lBEv68qmX/MaWdGIv0EIELrqusfIPBaMB5y2h0zEFHvCrTNVSWF74NInPZnIGkjgPJy4fDtDY+A6N8ALHDaH0tQ6pAiraKqpHBbugjBeQGI0Lqd9cvIwK/BfIvT7tiBUvhE0/DL51cUveu0L44KYN22xvnE8lsADzrph1OIqHfBtKZyRXGzUz44IoC1uw4FtQj/isD/DEBzwod0QSnEmPE7v4TLK1Yu7LK7fNsFsKG6folBeIVBM+wuO51RCidAtLpq5fzddpZrmwDKqw9mdcG/mQn/YFeZLuVlf3ZwvV0LSrYIYP32+psV6A8MFNhRntsRJQ0aa49tKilssLostrqAsur6HyslH45XfvwQU1EM6qN12+sftbwsqwyX79mjd7fnvkRET1pVxrWBvHSiu3nd26WlhhXWLRFA2TvNOazF3gJoqRX2rzUUsF15Y4+9+NAtnWbbNl0AG2ubphuRWM21sqhjH/IXVrJs06oF58y0aqoA1lc33KBI7Xb8EW2GopQcJY9abGYMgmkCeKqmfhYZ8j6DbzDL5kCUYeDS8WaETn6OSKgNotIrMIeY4ZswGRNunInJs+eBNGvWtxSkVSNZ/PyKBSfMsGeKAPq++f9nVeXHOjvwxb730NN+2QrzpuObMAnfuXcJPFmWBCZBQVpJU983oyVIeRq4sbZpel+zb9k3302VDwA9oTac2vcelGHJwB0MmiFR3v30tsNTU7eVAmXvNOcYkViNlX3+pePNrqr8fnpCbWj73LpnPMw0JwbeuXbXoZSamaQFUL5nj85a7C2rR/uhk59bad5SQidN6aZHhBm3c0R/80dbtiQ94EhaAN3tuS/ZMc+PhNqsLsIy7PCdgZKZgXmVKdyfOGXV9T+2a4Uv3Ub7iWDVGGAotCbZZeOEBbB+e/3NEHk1mcLGsQ4Bvfb09qaiRO9LSADl1QezFOgPzOxPtKBxrIWBLEMZb5bvaUmobhISQJj8VeNP9dIXYirqbu98PpF79Hgv3FBdv0SAf0zcrfRBh2CehHETRTANUWSLAkHQAQ1noeMofGgmP2JpECubLET4l7Lqxu3xRhbF1QKUb2nINgivpOaas8xDGL+QC1iOEOZIGBPEAENAAHJg4Cb0YDlC+IVcQCFcld01BIa88q9vHQjEd20cdAfUv7s1ho8APIwQVsllZGPsGUU2FFbKZTwkIfe2A4RZ3sCEZ+O5dEwBrNvWOL8veteVPIQQbpHuhO+7Fd1YIiELPLIHJVhT9s6nc8e6bnQBiFBf3L4rQ7fnIZxU5fdzK7pd2x0wQwdrL4553WhvrttZvwwuTdrQIVgs7SnbuV86oCMtsrgShgnLN1TXLxn1mpHeKC8XJgO/Nt8te5gn4bj6/LHIhoEC9JjgkTMI6DmIjDicGVEA4dsbHnFzWNdNZF5q/k3izm4AAEBYWLajsWSkt4cXgAj1Zem6lmmImmZrOmKm2XIChpSP1AoMK4B11fUPwOUp2tli3kMkM7oSZ6Hb1u9ouG+4d4YVAIHXWuvQOHajhJ4a7vUhAtiws2lOJuzM0W7iMk6HOycBV8GE5Ru2NQyJ3BoiAFHq5/a4ZC1nDPMEcEpZnkFnC4rkZ4Nfu+qTlW9p8CqFn9jnknU0x8yrtCMm2nISIXpi9cGDnoGvXfXJugJ42IW7cQ1LY4zRPvL0N25CQmg0MkMADEydcibw4KDXBvyhpNRel6wjRoRdPamvYO/q0WC497HQEESMq+r4igDK97T4Fcsq+12yBtZ0NBiMj2PJi6AuqqHRYLAWd9iEC+AfPllz1Hflr/5futu7FjE42xmnzEfTeru6mh4tKRHURTXURnrvY80zxtUugjAxEA3f2//ngC5AZVQqN+segDQIgJ09Gt7u0dEex3QuJIS3wzpqIr33ghi6x2uxtzbDuFLXV9o2IVlKGdTXERE8Pj+i4d6U+sYY44jhxXxNoUBT+LYmyCYBgdAuwJcG4YjBaDQYxgCheHxZDn0C6xDwUgBrgD4BPLO1/voYKONSujXdC+UxYER7H+YYAhyOMQ7HOa3TPH5oegY1/30wULCxtmn6b5YWnmEAMDTc7bRTVuHxBaB5Eo9i17x+eHxxhdW5klhM3QP0jQEUcI+z7liLxxeAxx8EKI7BIDE8/mx4vJlb+QBA0lvnOgAQ4bvOumM9mu6FpnthRCMwjCiUEQOkr7MnAms6WPNk3oBvZO4AAL28XDisGout3zAuPdA8XmjXTiWPiIgqgghx550N+VadsTNO+kLME9bubLpB12IozKDZ36h4NeCuuT7cPtuHmVN1TAoyiARtHYIT52I4eLwHHx6NIBLLgOe/caApFOoCyc+k+f9I3F3gw+P3BTEpOLivI0zJIUzJ8WLhbC8e/b7Cf+/txIHP3BsIGi8Cla/3nquXuTARfro4C4sXxDeqnxRk/NPyHBRc78EbuzuhJHNbAybKZ1i0uVO6kEjlD+SBBX48sTizh0YiciOLSEY8/x+Ouwt8SVV+Pw8s8OPuub6xL3QpBMplIsl12hEr8GrA4/el/g3++/uC8LoyMW5sFJDLpDDFaUes4K65vmEGfIkzOZtxx5xMbQVULguQeY+7ANw+27xKW2iirXSCiQMsQEYui82cal4Uz8xpmRQRdBU+vnKEeoZhRvPfz2QTbaUTCsqXmZ8MSJeDOdMehkLan3CdDJfazduk8VKHu5NDR4LBPUzITAEcP2PeUu6x0xm7LNzDBNh+WqUd1B3pMM3WR83m2UonlKhuBuOi045Ywf7GTlzqSL0buBiK4c8ZKgCAL7ASykgBRAzB67vOp2zn9V3nEbVrz2ebYeACE1Hq/6U0hDUdf2psx65Pkj9soqbuMg40d2RYZtA3COQCA+qvTjtiBf2ZQf9Zcz4pEdTUXcZ/9bUgGZUZNBCiVp2IW1y6C9qosO4BIhqUGHhl51dobO3GE0tyMSVn9G/zxVAMr+86jwP9/X4mZgb1ISKtujKkhTnzIoIGZwb9qbEddUc68LeF2bizIAezvu3DlOxeMXzdEcPxL8P46EgH/tzcgeiAkLBMzAzqh8AtuqZJ0yjbyLmawZlBEUPwQX07PqiPbwPJTM0M6ocgjez7uLhVQWXqPGc8M2gkBJdfKJn/BVdUkGKQ5efUO8l4ZtBQhNAAIukbEVEdgLsc9chixjODBqPqgL7UMFFqP7F7t4RPhPHMoF5IaD/Qv0GERw446s04tmNwrwB0AKhcdvOp9dsOHwPzTc66ZS2kM3Jm5iF7xnUI5AahZ/W2BLGuKMLn29HRehGhlguQmNu3hh0DhebNq4rOAgMPjWKuBZCZAiDChFm5yLsrH3pgaPOvB73IDl6H7BnXIfeOGTj/4QmEPr/ggKM2wVJ75df+X4hQO/zVLocI0743C9MXzR228gejZ3kx/f4CTP3ebIAyc32EiIcKwBcM7hWl3HtIznD0Vf7EgmkJ3zpp3jRMvWeWBU45TpuvS/b1/3FFABWL8sPEvM0Zn6xhwqzcpCq/n0nzpmHCrEzLm5GtFaVFV6LArgoKVUq22O+QNZDOyLsrP2U7eXfOBGuZ0xUQ0VV1fJUAsnroPQBf2eqRReTMzIurzx8LPehF9swMSZ9U6uzX08JXnSh6lQAqSosiELxhq1MWkT3jurS05ShEr7+6cOFVZ+kMyQtQRL+3zyPrCOSal9rtz82MHXQNHa8Nfm2IAKpK5h8TUe/a45J19C/ypJstB9mxeVnx54NfHDYzSKBttt6fcexEiRq2TocVQFVJ4ftQ6pC1LllLtNO8ZI5Yp4vPDQQAwcGqkuJ9w701fG4gkSjSKix1ymK6zrWZaCv5yOJ0QFg9O1Ky5IjJoVUlhduUwifWuWUtoeNnTbN1+dgZ02zZjYj6qHJ5cc1I74+cHUwkmoZfWuKVDVw6esaUbiDaEUabmwUA7ZnRUqVHTQ9/fkXRu26dEYihcPqD1CPdTu9thCiXxs2Lqq5aOX/3aJeMvT8A0xoArkuOYk1H22encfHwyaRtXDjUirZjp92ZGSSIKtKGPS10IGMKoHJFcTOA35rilI30Zwader8+KRFcONSKL/f2tiBuzAwSoKqqZP6xsa6La4cQv4TLlcKJ1N2yj/4zgyCCU7sP42TNJ4h2jD2di3aEcXLHJ/hyT31v0KgbM4OUOhbICf4qnkvjatsqVi7sKqtuXA3IH1PzzD4GZwa1fXYaoeNnMXHOtzBx9nQEpk6EJ9ibLxDtDKP7bBsuHz+DtmNnIMY3IWGuzAxiWl2xKD+uxYu4O7eqlfN3r9/e8DIA10QPD84MUobCpeZTuNR8Kr77XZkZJC+9UFK8N96rE9okyp8dXC9KXJVEci1lBimFT7s038ZE7klIABWL8sMaa48pl20rcy1kBimoDtLksf9YNiehxY+Et4nbVFLYoCkMOYY83dF0L/zBCfD4gmDdCxADoN4fYrDuhe4Lwh+c6MJmHyDwT/tmbAmR1D6Bz68qelOg7Jkampy6rnm88Pp7K9qfPan3JzgRXn/Q9NE+sU3bMAoqK0uK/ieZW5P2sKX7SJkCtid7f7x4Au7ds18PWD+DEIWtJ8JNCfX7A0laAG+XlhpZ3fg7QP6SrI14COT+jZXmLSWQN9XaApSqC1D48bdLS5NeqU2pjaooLepgJcuUkqOp2BmNwLTp0LPcNxfXs7IQmJp8SPqYKDSzJ7aiYuXClAbkKXdSm1YtOEcetVhBWlO1NRykaZhcUOQqEehZWZg8r8jKZwgtGkcf3LTstpR3eDNthLVhx+GZhtBuBs0wyyYAhM6dgoqEIUqh69xphM+fR6y7C6LSK4GTmKEHshDIm4rA1GkgZrDXjwlTv2N2US2Iafe/8Mi8VjOMmTrEfmZr/fURxh+ZaY5ZNsPtbQi3uTNRMzA5D77siabZU8ARD6IP/Kbk1i/NsmnqPOW5R4q/0CH3mhlJ5MueAHbbwxgAmscHbzDHPINK1ela5F4zKx8wWQBA75ggqwc/MGuKSMTIzvuWq0SgeXwI5k0HkTn/XlHY6qfIIjP6/MFYlvT2oy1btJmBeZUArTHDnohCpLMdPZ3tkGgEImk2BiAGebzwBXPgDeaYVvkQVJ4IN21MZao3GpZnPa7bXv+ogF7jDD2cyioUVAcLPfHCyuL/tbIcW9Jen97eVGQo401iKrKjPLejFD7VST26aeWCI1aXZcti9aaSwoZouP0OAC/bUZ6bEZEXwx7vnXZUPmBTCzCQsurGxRB5lRkz7S47rVHqGJhWJxLMYQa2nxpWtXL+7iwKF0NQqRQy8zSmRBBERfCbSLjjZrsrH3CgBRhI2TufziXil4hpmZN+OIaoakXaU/FE71pFWux9sqG6fomAngNhodO+2IGI+kigPTNW0oYdpIUAAAAiVLajsYQh5QDd5rQ7liA4KKyerVxeXJMuJ1umjwD6EaGynQ0/IANPZVDXsEOJ2lxVUrwvXSq+n/QTwAA2bGuYrUh+JkRPMGBxdIXJKHUWRK8bOl4bbmeOdCGtBdDP6oMHPVPOBB4UMUoB/iEI5j1iM5c2QLYS0Zavp4V3D96QKR1xhQAG8mTNUV8gGr4XjKUCXspAgaMOKTSDpZaIa31dsm/gJoxuwHUCGMzG2qbpsZi6hwT3ALgDpIoBNvE57DeIUiEw1wOqjoT2G0z7N68oMm8nCgdwvQCGIEJrdzbdoCkUClQ+E+WLyI0EylVALqBymTgAwKegfEDvKdoAepSoboAvMHBBIBdA1CoirQRuIUjjCyXzv0i3QVyq/D+QkEs08kWrogAAAABJRU5ErkJggg==;" parent="u77WEAVTGqhgQh1Kb9vr-3" vertex="1">
          <mxGeometry x="50" width="100" height="100" as="geometry" />
        </mxCell>
        <mxCell id="u77WEAVTGqhgQh1Kb9vr-5" value="&lt;font style=&quot;font-size: 18px&quot;&gt;Sem_Mutex_Id&lt;br&gt;&lt;/font&gt;" style="text;html=1;strokeColor=none;fillColor=none;align=center;verticalAlign=middle;whiteSpace=wrap;rounded=0;" parent="u77WEAVTGqhgQh1Kb9vr-3" vertex="1">
          <mxGeometry y="120" width="200" height="20" as="geometry" />
        </mxCell>
        <mxCell id="u77WEAVTGqhgQh1Kb9vr-6" value="" style="group" parent="1" vertex="1" connectable="0">
          <mxGeometry x="2100" y="260" width="200" height="70" as="geometry" />
        </mxCell>
        <mxCell id="u77WEAVTGqhgQh1Kb9vr-7" value="" style="shape=message;html=1;whiteSpace=wrap;html=1;outlineConnect=0;" parent="u77WEAVTGqhgQh1Kb9vr-6" vertex="1">
          <mxGeometry x="70" width="60" height="40" as="geometry" />
        </mxCell>
        <mxCell id="u77WEAVTGqhgQh1Kb9vr-8" value="&lt;font style=&quot;font-size: 18px&quot;&gt;&lt;br&gt;&lt;br&gt;&lt;br&gt;MsgQ_Id&lt;br&gt;(MsgQ_Name&lt;br&gt;MsgQ_Size&lt;br&gt;Timeout)&lt;br&gt;&lt;/font&gt;" style="text;html=1;strokeColor=none;fillColor=none;align=center;verticalAlign=middle;whiteSpace=wrap;rounded=0;" parent="u77WEAVTGqhgQh1Kb9vr-6" vertex="1">
          <mxGeometry y="50" width="200" height="20" as="geometry" />
        </mxCell>
        <object label="Sem_Binary_Id&lt;br&gt;(Timeout)" id="u77WEAVTGqhgQh1Kb9vr-9">
          <mxCell style="verticalLabelPosition=bottom;verticalAlign=top;html=1;shape=mxgraph.flowchart.collate;direction=south;rotation=90;" parent="1" vertex="1">
            <mxGeometry x="1990" y="275" width="70" height="40" as="geometry" />
          </mxCell>
        </object>
        <mxCell id="u77WEAVTGqhgQh1Kb9vr-10" value="&lt;font&gt;&lt;i&gt;&lt;font style=&quot;font-size: 14px&quot;&gt;(Aperiodic task)&lt;br&gt;&lt;/font&gt;&lt;/i&gt;&lt;font size=&quot;4&quot;&gt;Recive_message&lt;/font&gt;&lt;br&gt;&lt;font size=&quot;4&quot;&gt;(Task_name, Priority : x)&lt;/font&gt;&lt;br&gt;&lt;/font&gt;" style="ellipse;whiteSpace=wrap;html=1;aspect=fixed;fillColor=#dae8fc;strokeColor=#6c8ebf;" parent="1" vertex="1">
          <mxGeometry x="425" y="240" width="160" height="160" as="geometry" />
        </mxCell>
        <mxCell id="u77WEAVTGqhgQh1Kb9vr-11" style="edgeStyle=orthogonalEdgeStyle;rounded=0;orthogonalLoop=1;jettySize=auto;html=1;exitX=0.5;exitY=0;exitDx=0;exitDy=0;entryX=0.5;entryY=0;entryDx=0;entryDy=0;entryPerimeter=0;" parent="1" source="u77WEAVTGqhgQh1Kb9vr-10" target="vNHuncRpDRN7U7_UvtcU-1" edge="1">
          <mxGeometry relative="1" as="geometry" />
        </mxCell>
        <mxCell id="u77WEAVTGqhgQh1Kb9vr-14" value="" style="edgeStyle=orthogonalEdgeStyle;rounded=0;orthogonalLoop=1;jettySize=auto;html=1;exitX=0.5;exitY=0;exitDx=0;exitDy=0;" parent="1" source="AQJ6SZYPFtqUvpiH9dMF-7" target="u77WEAVTGqhgQh1Kb9vr-10" edge="1">
          <mxGeometry relative="1" as="geometry" />
        </mxCell>
        <mxCell id="wneV9AmQcglOjSwLp_fo-11" value="" style="edgeStyle=orthogonalEdgeStyle;rounded=0;orthogonalLoop=1;jettySize=auto;html=1;" edge="1" parent="1" source="-7zeq6VQ6AYaPace1Qw7-1" target="wneV9AmQcglOjSwLp_fo-9">
          <mxGeometry relative="1" as="geometry">
            <Array as="points">
              <mxPoint x="1902" y="1319" />
            </Array>
          </mxGeometry>
        </mxCell>
        <mxCell id="wneV9AmQcglOjSwLp_fo-12" value="{broadcast}" style="edgeLabel;html=1;align=center;verticalAlign=middle;resizable=0;points=[];" vertex="1" connectable="0" parent="wneV9AmQcglOjSwLp_fo-11">
          <mxGeometry x="-0.0314" y="-2" relative="1" as="geometry">
            <mxPoint x="-12" y="-2" as="offset" />
          </mxGeometry>
        </mxCell>
        <mxCell id="-7zeq6VQ6AYaPace1Qw7-1" value="&lt;font&gt;&lt;i&gt;&lt;font style=&quot;font-size: 14px&quot;&gt;(Aperiodic task)&lt;br&gt;&lt;/font&gt;&lt;/i&gt;&lt;font size=&quot;4&quot;&gt;ServerTask&lt;/font&gt;&lt;br&gt;&lt;font size=&quot;4&quot;&gt;(Priority : 30)&lt;/font&gt;&lt;br&gt;&lt;/font&gt;" style="ellipse;whiteSpace=wrap;html=1;aspect=fixed;fillColor=#dae8fc;strokeColor=#6c8ebf;" parent="1" vertex="1">
          <mxGeometry x="1617" y="1239" width="160" height="160" as="geometry" />
        </mxCell>
        <mxCell id="wneV9AmQcglOjSwLp_fo-13" style="edgeStyle=orthogonalEdgeStyle;rounded=0;orthogonalLoop=1;jettySize=auto;html=1;exitX=0;exitY=0.5;exitDx=0;exitDy=0;" edge="1" parent="1" source="-7zeq6VQ6AYaPace1Qw7-2" target="wneV9AmQcglOjSwLp_fo-9">
          <mxGeometry relative="1" as="geometry">
            <Array as="points">
              <mxPoint x="1902" y="1499" />
            </Array>
          </mxGeometry>
        </mxCell>
        <mxCell id="wneV9AmQcglOjSwLp_fo-15" value="{acquire}" style="edgeLabel;html=1;align=center;verticalAlign=middle;resizable=0;points=[];" vertex="1" connectable="0" parent="wneV9AmQcglOjSwLp_fo-13">
          <mxGeometry x="-0.4489" y="-1" relative="1" as="geometry">
            <mxPoint y="-49" as="offset" />
          </mxGeometry>
        </mxCell>
        <mxCell id="wneV9AmQcglOjSwLp_fo-18" value="{acquire}" style="edgeLabel;html=1;align=center;verticalAlign=middle;resizable=0;points=[];" vertex="1" connectable="0" parent="wneV9AmQcglOjSwLp_fo-13">
          <mxGeometry x="0.336" y="-2" relative="1" as="geometry">
            <mxPoint x="6" y="-2" as="offset" />
          </mxGeometry>
        </mxCell>
        <mxCell id="-7zeq6VQ6AYaPace1Qw7-2" value="&lt;font&gt;&lt;i&gt;&lt;font style=&quot;font-size: 14px&quot;&gt;(Aperiodic task)&lt;br&gt;&lt;/font&gt;&lt;/i&gt;&lt;font size=&quot;4&quot;&gt;SendToMonTask&lt;/font&gt;&lt;br&gt;&lt;font size=&quot;4&quot;&gt;(Priority : 25)&lt;/font&gt;&lt;br&gt;&lt;/font&gt;" style="ellipse;whiteSpace=wrap;html=1;aspect=fixed;fillColor=#dae8fc;strokeColor=#6c8ebf;" parent="1" vertex="1">
          <mxGeometry x="1617" y="1419" width="160" height="160" as="geometry" />
        </mxCell>
        <mxCell id="-7zeq6VQ6AYaPace1Qw7-42" style="edgeStyle=orthogonalEdgeStyle;rounded=0;orthogonalLoop=1;jettySize=auto;html=1;" parent="1" source="-7zeq6VQ6AYaPace1Qw7-3" target="-7zeq6VQ6AYaPace1Qw7-41" edge="1">
          <mxGeometry relative="1" as="geometry">
            <Array as="points">
              <mxPoint x="2047" y="1409" />
              <mxPoint x="2047" y="1609" />
            </Array>
          </mxGeometry>
        </mxCell>
        <mxCell id="-7zeq6VQ6AYaPace1Qw7-43" value="{release}" style="edgeLabel;html=1;align=center;verticalAlign=middle;resizable=0;points=[];" parent="-7zeq6VQ6AYaPace1Qw7-42" vertex="1" connectable="0">
          <mxGeometry x="0.2498" y="-3" relative="1" as="geometry">
            <mxPoint x="-47" y="44" as="offset" />
          </mxGeometry>
        </mxCell>
        <mxCell id="-7zeq6VQ6AYaPace1Qw7-45" style="edgeStyle=orthogonalEdgeStyle;rounded=0;orthogonalLoop=1;jettySize=auto;html=1;" parent="1" source="-7zeq6VQ6AYaPace1Qw7-3" target="-7zeq6VQ6AYaPace1Qw7-44" edge="1">
          <mxGeometry relative="1" as="geometry">
            <Array as="points">
              <mxPoint x="2047" y="1409" />
              <mxPoint x="2047" y="1799" />
            </Array>
          </mxGeometry>
        </mxCell>
        <mxCell id="-7zeq6VQ6AYaPace1Qw7-48" style="edgeStyle=orthogonalEdgeStyle;rounded=0;orthogonalLoop=1;jettySize=auto;html=1;" parent="1" source="-7zeq6VQ6AYaPace1Qw7-3" target="-7zeq6VQ6AYaPace1Qw7-47" edge="1">
          <mxGeometry relative="1" as="geometry">
            <Array as="points">
              <mxPoint x="2047" y="1409" />
              <mxPoint x="2047" y="1979" />
            </Array>
          </mxGeometry>
        </mxCell>
        <mxCell id="-7zeq6VQ6AYaPace1Qw7-66" value="{release}" style="edgeLabel;html=1;align=center;verticalAlign=middle;resizable=0;points=[];" parent="-7zeq6VQ6AYaPace1Qw7-48" vertex="1" connectable="0">
          <mxGeometry x="0.3256" y="2" relative="1" as="geometry">
            <mxPoint x="-52" y="153" as="offset" />
          </mxGeometry>
        </mxCell>
        <mxCell id="-7zeq6VQ6AYaPace1Qw7-69" style="edgeStyle=orthogonalEdgeStyle;rounded=0;orthogonalLoop=1;jettySize=auto;html=1;" parent="1" source="-7zeq6VQ6AYaPace1Qw7-3" target="-7zeq6VQ6AYaPace1Qw7-68" edge="1">
          <mxGeometry relative="1" as="geometry">
            <Array as="points">
              <mxPoint x="2047" y="1409" />
              <mxPoint x="2047" y="1769" />
              <mxPoint x="2122" y="1769" />
            </Array>
          </mxGeometry>
        </mxCell>
        <mxCell id="-7zeq6VQ6AYaPace1Qw7-71" value="{release}" style="edgeLabel;html=1;align=center;verticalAlign=middle;resizable=0;points=[];" parent="-7zeq6VQ6AYaPace1Qw7-69" vertex="1" connectable="0">
          <mxGeometry x="0.4987" y="4" relative="1" as="geometry">
            <mxPoint x="36" y="42" as="offset" />
          </mxGeometry>
        </mxCell>
        <mxCell id="-7zeq6VQ6AYaPace1Qw7-75" style="edgeStyle=orthogonalEdgeStyle;rounded=0;orthogonalLoop=1;jettySize=auto;html=1;" parent="1" target="-7zeq6VQ6AYaPace1Qw7-74" edge="1">
          <mxGeometry relative="1" as="geometry">
            <Array as="points">
              <mxPoint x="2047" y="1409" />
              <mxPoint x="2047" y="2039" />
              <mxPoint x="2122" y="2039" />
            </Array>
            <mxPoint x="2157" y="1408.9999999999998" as="sourcePoint" />
            <mxPoint x="1932" y="2239" as="targetPoint" />
          </mxGeometry>
        </mxCell>
        <mxCell id="wneV9AmQcglOjSwLp_fo-3" value="{release}" style="edgeLabel;html=1;align=center;verticalAlign=middle;resizable=0;points=[];" vertex="1" connectable="0" parent="-7zeq6VQ6AYaPace1Qw7-75">
          <mxGeometry x="0.5716" y="1" relative="1" as="geometry">
            <mxPoint x="39" y="73" as="offset" />
          </mxGeometry>
        </mxCell>
        <mxCell id="wneV9AmQcglOjSwLp_fo-19" style="edgeStyle=orthogonalEdgeStyle;rounded=0;orthogonalLoop=1;jettySize=auto;html=1;exitX=0;exitY=0.5;exitDx=0;exitDy=0;" edge="1" parent="1" source="-7zeq6VQ6AYaPace1Qw7-3" target="wneV9AmQcglOjSwLp_fo-9">
          <mxGeometry relative="1" as="geometry" />
        </mxCell>
        <mxCell id="wneV9AmQcglOjSwLp_fo-20" value="{acquire}" style="edgeLabel;html=1;align=center;verticalAlign=middle;resizable=0;points=[];" vertex="1" connectable="0" parent="wneV9AmQcglOjSwLp_fo-19">
          <mxGeometry x="0.2882" y="-2" relative="1" as="geometry">
            <mxPoint x="-9" y="2" as="offset" />
          </mxGeometry>
        </mxCell>
        <mxCell id="-7zeq6VQ6AYaPace1Qw7-3" value="&lt;font&gt;&lt;i&gt;&lt;font style=&quot;font-size: 14px&quot;&gt;(Aperiodic task)&lt;br&gt;&lt;/font&gt;&lt;/i&gt;&lt;font size=&quot;4&quot;&gt;ReceiveFromMonTask&lt;/font&gt;&lt;br&gt;&lt;font size=&quot;4&quot;&gt;(Priority : 26)&lt;/font&gt;&lt;br&gt;&lt;/font&gt;" style="ellipse;whiteSpace=wrap;html=1;aspect=fixed;fillColor=#dae8fc;strokeColor=#6c8ebf;" parent="1" vertex="1">
          <mxGeometry x="2157" y="1309" width="200" height="200" as="geometry" />
        </mxCell>
        <mxCell id="-7zeq6VQ6AYaPace1Qw7-4" value="&lt;font&gt;&lt;i&gt;&lt;font style=&quot;font-size: 14px&quot;&gt;(Aperiodic task)&lt;br&gt;&lt;/font&gt;&lt;/i&gt;&lt;font size=&quot;4&quot;&gt;OpenComRobot&lt;/font&gt;&lt;br&gt;&lt;font size=&quot;4&quot;&gt;(Priority : 23)&lt;/font&gt;&lt;br&gt;&lt;/font&gt;" style="ellipse;whiteSpace=wrap;html=1;aspect=fixed;fillColor=#dae8fc;strokeColor=#6c8ebf;" parent="1" vertex="1">
          <mxGeometry x="1617" y="1599" width="160" height="160" as="geometry" />
        </mxCell>
        <mxCell id="-7zeq6VQ6AYaPace1Qw7-5" value="&lt;font&gt;&lt;i&gt;&lt;font style=&quot;font-size: 14px&quot;&gt;(Aperiodic task)&lt;br&gt;&lt;/font&gt;&lt;font size=&quot;4&quot;&gt;StartRobotTask&lt;/font&gt;&lt;/i&gt;&lt;br&gt;&lt;font size=&quot;4&quot;&gt;(Priority : 22)&lt;/font&gt;&lt;br&gt;&lt;/font&gt;" style="ellipse;whiteSpace=wrap;html=1;aspect=fixed;fillColor=#dae8fc;strokeColor=#6c8ebf;" parent="1" vertex="1">
          <mxGeometry x="1617" y="1779" width="160" height="160" as="geometry" />
        </mxCell>
        <mxCell id="-7zeq6VQ6AYaPace1Qw7-6" value="&lt;font&gt;&lt;i&gt;&lt;font style=&quot;font-size: 14px&quot;&gt;(Aperiodic task)&lt;br&gt;&lt;/font&gt;&lt;font size=&quot;4&quot;&gt;StartRobotWDTask&lt;/font&gt;&lt;/i&gt;&lt;br&gt;&lt;font size=&quot;4&quot;&gt;(Priority : 20)&lt;/font&gt;&lt;br&gt;&lt;/font&gt;" style="ellipse;whiteSpace=wrap;html=1;aspect=fixed;fillColor=#dae8fc;strokeColor=#6c8ebf;" parent="1" vertex="1">
          <mxGeometry x="1627" y="1959" width="160" height="160" as="geometry" />
        </mxCell>
        <mxCell id="-7zeq6VQ6AYaPace1Qw7-64" style="edgeStyle=orthogonalEdgeStyle;rounded=0;orthogonalLoop=1;jettySize=auto;html=1;" parent="1" source="-7zeq6VQ6AYaPace1Qw7-8" target="-7zeq6VQ6AYaPace1Qw7-63" edge="1">
          <mxGeometry relative="1" as="geometry">
            <Array as="points">
              <mxPoint x="2971" y="1680" />
            </Array>
          </mxGeometry>
        </mxCell>
        <mxCell id="-7zeq6VQ6AYaPace1Qw7-65" value="{release}" style="edgeLabel;html=1;align=center;verticalAlign=middle;resizable=0;points=[];" parent="-7zeq6VQ6AYaPace1Qw7-64" vertex="1" connectable="0">
          <mxGeometry x="0.0623" y="3" relative="1" as="geometry">
            <mxPoint x="21" y="23" as="offset" />
          </mxGeometry>
        </mxCell>
        <mxCell id="-7zeq6VQ6AYaPace1Qw7-8" value="&lt;font&gt;&lt;i&gt;&lt;font style=&quot;font-size: 14px&quot;&gt;(Aperiodic task)&lt;br&gt;&lt;/font&gt;&lt;font size=&quot;4&quot;&gt;OpenCameraTask&lt;/font&gt;&lt;/i&gt;&lt;br&gt;&lt;/font&gt;" style="ellipse;whiteSpace=wrap;html=1;aspect=fixed;fillColor=#dae8fc;strokeColor=#6c8ebf;" parent="1" vertex="1">
          <mxGeometry x="2717" y="1589" width="160" height="160" as="geometry" />
        </mxCell>
        <mxCell id="-7zeq6VQ6AYaPace1Qw7-9" value="&lt;font&gt;&lt;i&gt;&lt;font style=&quot;font-size: 14px&quot;&gt;(Aperiodic task)&lt;br&gt;&lt;/font&gt;&lt;font size=&quot;4&quot;&gt;CloseCameraTask&lt;/font&gt;&lt;/i&gt;&lt;br&gt;&lt;/font&gt;" style="ellipse;whiteSpace=wrap;html=1;aspect=fixed;fillColor=#dae8fc;strokeColor=#6c8ebf;" parent="1" vertex="1">
          <mxGeometry x="2717" y="1409" width="160" height="160" as="geometry" />
        </mxCell>
        <mxCell id="-7zeq6VQ6AYaPace1Qw7-11" value="&lt;font&gt;&lt;i&gt;&lt;font style=&quot;font-size: 14px&quot;&gt;(Aperiodic task)&lt;br&gt;&lt;/font&gt;&lt;font size=&quot;4&quot;&gt;ArenaTask&lt;/font&gt;&lt;/i&gt;&lt;br&gt;&lt;font size=&quot;4&quot;&gt;(Priority : 25)&lt;/font&gt;&lt;br&gt;&lt;/font&gt;" style="ellipse;whiteSpace=wrap;html=1;aspect=fixed;fillColor=#dae8fc;strokeColor=#6c8ebf;" parent="1" vertex="1">
          <mxGeometry x="2177" y="1819.74" width="160" height="160" as="geometry" />
        </mxCell>
        <mxCell id="-7zeq6VQ6AYaPace1Qw7-15" value="&lt;font style=&quot;font-size: 18px&quot;&gt;&lt;i style=&quot;font-size: 12px&quot;&gt;&lt;font style=&quot;font-size: 14px&quot;&gt;(Periodic task)&lt;br&gt;&lt;/font&gt;&lt;/i&gt;&lt;/font&gt;&lt;font&gt;&lt;i&gt;&lt;font size=&quot;4&quot;&gt;BatteryTask&lt;/font&gt;&lt;/i&gt;&lt;/font&gt;&lt;font style=&quot;font-size: 18px&quot;&gt;&lt;i style=&quot;font-size: 12px&quot;&gt;&lt;font style=&quot;font-size: 14px&quot;&gt;&lt;/font&gt;&lt;/i&gt;&lt;br style=&quot;font-size: 12px&quot;&gt;&lt;font size=&quot;4&quot;&gt;( Priority : 27, &lt;br&gt;T : 500 ms)&lt;/font&gt;&lt;br&gt;&lt;/font&gt;" style="ellipse;whiteSpace=wrap;html=1;aspect=fixed;fillColor=#d5e8d4;strokeColor=#82b366;" parent="1" vertex="1">
          <mxGeometry x="1127" y="1780" width="160" height="160" as="geometry" />
        </mxCell>
        <mxCell id="-7zeq6VQ6AYaPace1Qw7-16" value="&lt;font style=&quot;font-size: 18px&quot;&gt;&lt;i style=&quot;font-size: 12px&quot;&gt;&lt;font style=&quot;font-size: 14px&quot;&gt;(Periodic task)&lt;br&gt;&lt;/font&gt;&lt;/i&gt;&lt;/font&gt;&lt;font&gt;&lt;i&gt;&lt;font size=&quot;4&quot;&gt;CalculPositionTask&lt;/font&gt;&lt;/i&gt;&lt;/font&gt;&lt;font style=&quot;font-size: 18px&quot;&gt;&lt;br style=&quot;font-size: 12px&quot;&gt;&lt;font size=&quot;4&quot;&gt;( Priority : 24, &lt;br&gt;T : 100 ms)&lt;/font&gt;&lt;br&gt;&lt;/font&gt;" style="ellipse;whiteSpace=wrap;html=1;aspect=fixed;fillColor=#d5e8d4;strokeColor=#82b366;" parent="1" vertex="1">
          <mxGeometry x="1137" y="1329" width="160" height="160" as="geometry" />
        </mxCell>
        <mxCell id="-7zeq6VQ6AYaPace1Qw7-18" value="&lt;font style=&quot;font-size: 18px&quot;&gt;&lt;i style=&quot;font-size: 12px&quot;&gt;&lt;font style=&quot;font-size: 14px&quot;&gt;(Periodic task)&lt;br&gt;&lt;/font&gt;&lt;/i&gt;&lt;/font&gt;&lt;font&gt;&lt;i&gt;&lt;font size=&quot;4&quot;&gt;CameraTask&lt;/font&gt;&lt;/i&gt;&lt;/font&gt;&lt;font style=&quot;font-size: 18px&quot;&gt;&lt;br style=&quot;font-size: 12px&quot;&gt;&lt;font size=&quot;4&quot;&gt;( Priority : 24, &lt;br&gt;T : 100 ms)&lt;/font&gt;&lt;br&gt;&lt;/font&gt;" style="ellipse;whiteSpace=wrap;html=1;aspect=fixed;fillColor=#d5e8d4;strokeColor=#82b366;" parent="1" vertex="1">
          <mxGeometry x="2707" y="1770" width="160" height="160" as="geometry" />
        </mxCell>
        <mxCell id="-7zeq6VQ6AYaPace1Qw7-19" value="&lt;font style=&quot;font-size: 18px&quot;&gt;&lt;i style=&quot;font-size: 12px&quot;&gt;&lt;font style=&quot;font-size: 14px&quot;&gt;(Periodic task)&lt;br&gt;&lt;/font&gt;&lt;/i&gt;&lt;/font&gt;&lt;font size=&quot;4&quot;&gt;MoveTask&lt;/font&gt;&lt;font style=&quot;font-size: 18px&quot;&gt;&lt;br style=&quot;font-size: 12px&quot;&gt;&lt;font size=&quot;4&quot;&gt;( Priority : 29, &lt;br&gt;T : 100 ms)&lt;/font&gt;&lt;br&gt;&lt;/font&gt;" style="ellipse;whiteSpace=wrap;html=1;aspect=fixed;fillColor=#d5e8d4;strokeColor=#82b366;" parent="1" vertex="1">
          <mxGeometry x="1127" y="1609" width="160" height="160" as="geometry" />
        </mxCell>
        <mxCell id="-7zeq6VQ6AYaPace1Qw7-20" value="" style="group" parent="1" vertex="1" connectable="0">
          <mxGeometry x="827" y="1789" width="200" height="140" as="geometry" />
        </mxCell>
        <mxCell id="-7zeq6VQ6AYaPace1Qw7-22" value="mutex_move" style="text;html=1;strokeColor=none;fillColor=none;align=center;verticalAlign=middle;whiteSpace=wrap;rounded=0;" parent="-7zeq6VQ6AYaPace1Qw7-20" vertex="1">
          <mxGeometry y="120" width="200" height="20" as="geometry" />
        </mxCell>
        <mxCell id="wneV9AmQcglOjSwLp_fo-44" style="edgeStyle=orthogonalEdgeStyle;rounded=0;orthogonalLoop=1;jettySize=auto;html=1;" edge="1" parent="1" source="-7zeq6VQ6AYaPace1Qw7-41" target="-7zeq6VQ6AYaPace1Qw7-4">
          <mxGeometry relative="1" as="geometry">
            <Array as="points">
              <mxPoint x="1912" y="1679" />
            </Array>
          </mxGeometry>
        </mxCell>
        <mxCell id="wneV9AmQcglOjSwLp_fo-45" value="&lt;span style=&quot;color: light-dark(rgb(0, 0, 0), rgb(255, 255, 255)); text-align: start;&quot;&gt;{&lt;/span&gt;acquire&lt;span style=&quot;text-align: start; color: rgba(0, 0, 0, 0); font-family: monospace; font-size: 0px; background-color: rgb(236, 236, 236);&quot;&gt;%3CmxGraphModel%3E%3Croot%3E%3CmxCell%20id%3D%220%22%2F%3E%3CmxCell%20id%3D%221%22%20parent%3D%220%22%2F%3E%3CmxCell%20id%3D%222%22%20value%3D%22%7Bacquire%7D%22%20style%3D%22edgeLabel%3Bhtml%3D1%3Balign%3Dcenter%3BverticalAlign%3Dmiddle%3Bresizable%3D0%3Bpoints%3D%5B%5D%3B%22%20vertex%3D%221%22%20connectable%3D%220%22%20parent%3D%221%22%3E%3CmxGeometry%20x%3D%223230.8569986039024%22%20y%3D%222140.0198338908754%22%20as%3D%22geometry%22%2F%3E%3C%2FmxCell%3E%3C%2Froot%3E%3C%2FmxGraphModel%3E&lt;/span&gt;&lt;span style=&quot;text-align: start; color: rgba(0, 0, 0, 0); font-family: monospace; font-size: 0px; background-color: rgb(236, 236, 236);&quot;&gt;%3CmxGraphModel%3E%3Croot%3E%3CmxCell%20id%3D%220%22%2F%3E%3CmxCell%20id%3D%221%22%20parent%3D%220%22%2F%3E%3CmxCell%20id%3D%222%22%20value%3D%22%7Bacquire%7D%22%20style%3D%22edgeLabel%3Bhtml%3D1%3Balign%3Dcenter%3BverticalAlign%3Dmiddle%3Bresizable%3D0%3Bpoints%3D%5B%5D%3B%22%20vertex%3D%221%22%20connectable%3D%220%22%20parent%3D%221%22%3E%3CmxGeometry%20x%3D%223230.8569986039024%22%20y%3D%222140.0198338908754%22%20as%3D%22geometry%22%2F%3E%3C%2FmxCell%3E%3C%2Froot%3E%3C%2FmxGraphModel%3E&lt;/span&gt;&lt;span style=&quot;color: light-dark(rgb(0, 0, 0), rgb(255, 255, 255)); text-align: start; font-size: 0px;&quot;&gt;&lt;font face=&quot;monospace&quot;&gt;acquire&lt;/font&gt;&lt;/span&gt;&lt;span style=&quot;color: light-dark(rgb(0, 0, 0), rgb(255, 255, 255)); font-size: 0px;&quot;&gt;&lt;font face=&quot;monospace&quot;&gt;acquire&lt;/font&gt;&lt;/span&gt;&lt;span style=&quot;color: light-dark(rgb(0, 0, 0), rgb(255, 255, 255)); text-align: start;&quot;&gt;}&lt;/span&gt;" style="edgeLabel;html=1;align=center;verticalAlign=middle;resizable=0;points=[];" vertex="1" connectable="0" parent="wneV9AmQcglOjSwLp_fo-44">
          <mxGeometry x="0.3986" y="4" relative="1" as="geometry">
            <mxPoint y="-4" as="offset" />
          </mxGeometry>
        </mxCell>
        <object label="sem_openComRobot" id="-7zeq6VQ6AYaPace1Qw7-41">
          <mxCell style="verticalLabelPosition=bottom;verticalAlign=top;html=1;shape=mxgraph.flowchart.collate;direction=south;rotation=90;" parent="1" vertex="1">
            <mxGeometry x="1877" y="1589" width="70" height="40" as="geometry" />
          </mxCell>
        </object>
        <mxCell id="wneV9AmQcglOjSwLp_fo-51" style="edgeStyle=orthogonalEdgeStyle;rounded=0;orthogonalLoop=1;jettySize=auto;html=1;" edge="1" parent="1" source="-7zeq6VQ6AYaPace1Qw7-44" target="-7zeq6VQ6AYaPace1Qw7-5">
          <mxGeometry relative="1" as="geometry">
            <Array as="points">
              <mxPoint x="1912" y="1859" />
            </Array>
          </mxGeometry>
        </mxCell>
        <mxCell id="wneV9AmQcglOjSwLp_fo-53" value="{acquire}" style="edgeLabel;html=1;align=center;verticalAlign=middle;resizable=0;points=[];" vertex="1" connectable="0" parent="wneV9AmQcglOjSwLp_fo-51">
          <mxGeometry x="0.5402" y="-3" relative="1" as="geometry">
            <mxPoint x="13" y="3" as="offset" />
          </mxGeometry>
        </mxCell>
        <object label="sem_startRobot" id="-7zeq6VQ6AYaPace1Qw7-44">
          <mxCell style="verticalLabelPosition=bottom;verticalAlign=top;html=1;shape=mxgraph.flowchart.collate;direction=south;rotation=90;" parent="1" vertex="1">
            <mxGeometry x="1877" y="1779" width="70" height="40" as="geometry" />
          </mxCell>
        </object>
        <mxCell id="-7zeq6VQ6AYaPace1Qw7-46" value="{release}" style="edgeLabel;html=1;align=center;verticalAlign=middle;resizable=0;points=[];" parent="1" vertex="1" connectable="0">
          <mxGeometry x="1997" y="1799" as="geometry" />
        </mxCell>
        <mxCell id="wneV9AmQcglOjSwLp_fo-59" style="edgeStyle=orthogonalEdgeStyle;rounded=0;orthogonalLoop=1;jettySize=auto;html=1;" edge="1" parent="1" source="-7zeq6VQ6AYaPace1Qw7-47" target="-7zeq6VQ6AYaPace1Qw7-6">
          <mxGeometry relative="1" as="geometry">
            <Array as="points">
              <mxPoint x="1912" y="2039" />
            </Array>
          </mxGeometry>
        </mxCell>
        <object label="sem_startRobotWD" id="-7zeq6VQ6AYaPace1Qw7-47">
          <mxCell style="verticalLabelPosition=bottom;verticalAlign=top;html=1;shape=mxgraph.flowchart.collate;direction=south;rotation=90;" parent="1" vertex="1">
            <mxGeometry x="1877" y="1959" width="70" height="40" as="geometry" />
          </mxCell>
        </object>
        <mxCell id="-7zeq6VQ6AYaPace1Qw7-54" style="edgeStyle=orthogonalEdgeStyle;rounded=0;orthogonalLoop=1;jettySize=auto;html=1;" parent="1" source="-7zeq6VQ6AYaPace1Qw7-51" target="-7zeq6VQ6AYaPace1Qw7-9" edge="1">
          <mxGeometry relative="1" as="geometry">
            <Array as="points">
              <mxPoint x="2656" y="1670" />
              <mxPoint x="2656" y="1489" />
            </Array>
          </mxGeometry>
        </mxCell>
        <mxCell id="-7zeq6VQ6AYaPace1Qw7-60" style="edgeStyle=orthogonalEdgeStyle;rounded=0;orthogonalLoop=1;jettySize=auto;html=1;" parent="1" source="-7zeq6VQ6AYaPace1Qw7-51" target="-7zeq6VQ6AYaPace1Qw7-8" edge="1">
          <mxGeometry relative="1" as="geometry">
            <Array as="points">
              <mxPoint x="2686" y="1670" />
              <mxPoint x="2686" y="1670" />
            </Array>
          </mxGeometry>
        </mxCell>
        <object label="sem_cam" id="-7zeq6VQ6AYaPace1Qw7-63">
          <mxCell style="verticalLabelPosition=bottom;verticalAlign=top;html=1;shape=mxgraph.flowchart.collate;direction=south;rotation=90;" parent="1" vertex="1">
            <mxGeometry x="2936" y="1740" width="70" height="40" as="geometry" />
          </mxCell>
        </object>
        <mxCell id="wneV9AmQcglOjSwLp_fo-29" style="edgeStyle=orthogonalEdgeStyle;rounded=0;orthogonalLoop=1;jettySize=auto;html=1;" edge="1" parent="1" source="-7zeq6VQ6AYaPace1Qw7-68" target="-7zeq6VQ6AYaPace1Qw7-11">
          <mxGeometry relative="1" as="geometry">
            <mxPoint x="2167" y="2129.74" as="sourcePoint" />
            <Array as="points">
              <mxPoint x="2122" y="1899.7399999999998" />
            </Array>
          </mxGeometry>
        </mxCell>
        <object label="sem_Arena" id="-7zeq6VQ6AYaPace1Qw7-68">
          <mxCell style="verticalLabelPosition=bottom;verticalAlign=top;html=1;shape=mxgraph.flowchart.collate;direction=south;rotation=90;" parent="1" vertex="1">
            <mxGeometry x="2087" y="1809.74" width="70" height="40" as="geometry" />
          </mxCell>
        </object>
        <mxCell id="-7zeq6VQ6AYaPace1Qw7-72" style="edgeStyle=orthogonalEdgeStyle;rounded=0;orthogonalLoop=1;jettySize=auto;html=1;" parent="1" source="-7zeq6VQ6AYaPace1Qw7-51" target="-7zeq6VQ6AYaPace1Qw7-3" edge="1">
          <mxGeometry relative="1" as="geometry" />
        </mxCell>
        <mxCell id="wneV9AmQcglOjSwLp_fo-62" style="edgeStyle=orthogonalEdgeStyle;rounded=0;orthogonalLoop=1;jettySize=auto;html=1;exitX=0.5;exitY=1;exitDx=0;exitDy=0;exitPerimeter=0;" edge="1" parent="1" source="-7zeq6VQ6AYaPace1Qw7-74" target="-7zeq6VQ6AYaPace1Qw7-11">
          <mxGeometry relative="1" as="geometry" />
        </mxCell>
        <mxCell id="wneV9AmQcglOjSwLp_fo-63" value="{acquire}" style="edgeLabel;html=1;align=center;verticalAlign=middle;resizable=0;points=[];" vertex="1" connectable="0" parent="wneV9AmQcglOjSwLp_fo-62">
          <mxGeometry x="-0.286" y="1" relative="1" as="geometry">
            <mxPoint x="1" y="-3" as="offset" />
          </mxGeometry>
        </mxCell>
        <object label="sem_ArenaOK" id="-7zeq6VQ6AYaPace1Qw7-74">
          <mxCell style="verticalLabelPosition=bottom;verticalAlign=top;html=1;shape=mxgraph.flowchart.collate;direction=south;rotation=90;" parent="1" vertex="1">
            <mxGeometry x="2087" y="1949.7399999999998" width="70" height="40" as="geometry" />
          </mxCell>
        </object>
        <mxCell id="-7zeq6VQ6AYaPace1Qw7-14" value="&lt;font&gt;&lt;i&gt;&lt;font style=&quot;font-size: 14px&quot;&gt;(Aperiodic task)&lt;br&gt;&lt;/font&gt;&lt;font size=&quot;4&quot;&gt;MonitorError&lt;/font&gt;&lt;/i&gt;&lt;br&gt;&lt;font size=&quot;4&quot;&gt;(Priority : 23)&lt;/font&gt;&lt;br&gt;&lt;/font&gt;" style="ellipse;whiteSpace=wrap;html=1;aspect=fixed;fillColor=#dae8fc;strokeColor=#6c8ebf;movable=1;resizable=1;rotatable=1;deletable=1;editable=1;locked=0;connectable=1;" parent="1" vertex="1">
          <mxGeometry x="1127" y="1959" width="160" height="160" as="geometry" />
        </mxCell>
        <mxCell id="wneV9AmQcglOjSwLp_fo-73" style="edgeStyle=orthogonalEdgeStyle;rounded=0;orthogonalLoop=1;jettySize=auto;html=1;" edge="1" parent="1" source="-7zeq6VQ6AYaPace1Qw7-21" target="-7zeq6VQ6AYaPace1Qw7-3">
          <mxGeometry relative="1" as="geometry">
            <Array as="points">
              <mxPoint x="1027" y="1859" />
              <mxPoint x="1027" y="1169" />
              <mxPoint x="2257" y="1169" />
            </Array>
          </mxGeometry>
        </mxCell>
        <mxCell id="-7zeq6VQ6AYaPace1Qw7-21" value="" style="shape=image;verticalLabelPosition=bottom;labelBackgroundColor=#ffffff;verticalAlign=top;aspect=fixed;imageAspect=0;image=data:image/png,iVBORw0KGgoAAAANSUhEUgAAAIAAAACACAYAAADDPmHLAAAABHNCSVQICAgIfAhkiAAAAAlwSFlzAAALEwAACxMBAJqcGAAAEjNJREFUeJztnWtwVGWax//Pc07f0gk3kwVmRiWAEEKCN0ZdndFBFOUSGD9MSnedGqdqhprdWndrwQDi1MbsjIMm6Ey5n3TH1Q9b5Yi7hQRIxBoE2YHRiFNIbghIwohcBCR0bp3uPu+zH5JgyLUv59Knya8qVUn3Oc/7dN5/v7fzPO9LyDDKy4U772zI12IoFEg+CDMAvkFE8ogklxSmCJAlgBcMLwBAIUJAhIAuMC4qoYtEdB5QfyXiFmVIi6ZJk+/j4taKClLOfkJzIacdSJVnttZfb2i4WwH3EOG7UFQMRtCKshRUB4MaAKoTpfbDIwcql918yoqy7MJ1Aijf0+Lvbu9aBKilQrKUwbMddUipY2CuJUKtLxjcW7EoP+yoPwniCgGUb2nwdgXwMCspBctKgHOc9mk4RKkQMW9TSrZk9dB7FaVFEad9Gou0FsCGnU1zRKmfK4WfMCPPaX8S5CsI3lBEv68qmX/MaWdGIv0EIELrqusfIPBaMB5y2h0zEFHvCrTNVSWF74NInPZnIGkjgPJy4fDtDY+A6N8ALHDaH0tQ6pAiraKqpHBbugjBeQGI0Lqd9cvIwK/BfIvT7tiBUvhE0/DL51cUveu0L44KYN22xvnE8lsADzrph1OIqHfBtKZyRXGzUz44IoC1uw4FtQj/isD/DEBzwod0QSnEmPE7v4TLK1Yu7LK7fNsFsKG6folBeIVBM+wuO51RCidAtLpq5fzddpZrmwDKqw9mdcG/mQn/YFeZLuVlf3ZwvV0LSrYIYP32+psV6A8MFNhRntsRJQ0aa49tKilssLostrqAsur6HyslH45XfvwQU1EM6qN12+sftbwsqwyX79mjd7fnvkRET1pVxrWBvHSiu3nd26WlhhXWLRFA2TvNOazF3gJoqRX2rzUUsF15Y4+9+NAtnWbbNl0AG2ubphuRWM21sqhjH/IXVrJs06oF58y0aqoA1lc33KBI7Xb8EW2GopQcJY9abGYMgmkCeKqmfhYZ8j6DbzDL5kCUYeDS8WaETn6OSKgNotIrMIeY4ZswGRNunInJs+eBNGvWtxSkVSNZ/PyKBSfMsGeKAPq++f9nVeXHOjvwxb730NN+2QrzpuObMAnfuXcJPFmWBCZBQVpJU983oyVIeRq4sbZpel+zb9k3302VDwA9oTac2vcelGHJwB0MmiFR3v30tsNTU7eVAmXvNOcYkViNlX3+pePNrqr8fnpCbWj73LpnPMw0JwbeuXbXoZSamaQFUL5nj85a7C2rR/uhk59bad5SQidN6aZHhBm3c0R/80dbtiQ94EhaAN3tuS/ZMc+PhNqsLsIy7PCdgZKZgXmVKdyfOGXV9T+2a4Uv3Ub7iWDVGGAotCbZZeOEBbB+e/3NEHk1mcLGsQ4Bvfb09qaiRO9LSADl1QezFOgPzOxPtKBxrIWBLEMZb5bvaUmobhISQJj8VeNP9dIXYirqbu98PpF79Hgv3FBdv0SAf0zcrfRBh2CehHETRTANUWSLAkHQAQ1noeMofGgmP2JpECubLET4l7Lqxu3xRhbF1QKUb2nINgivpOaas8xDGL+QC1iOEOZIGBPEAENAAHJg4Cb0YDlC+IVcQCFcld01BIa88q9vHQjEd20cdAfUv7s1ho8APIwQVsllZGPsGUU2FFbKZTwkIfe2A4RZ3sCEZ+O5dEwBrNvWOL8veteVPIQQbpHuhO+7Fd1YIiELPLIHJVhT9s6nc8e6bnQBiFBf3L4rQ7fnIZxU5fdzK7pd2x0wQwdrL4553WhvrttZvwwuTdrQIVgs7SnbuV86oCMtsrgShgnLN1TXLxn1mpHeKC8XJgO/Nt8te5gn4bj6/LHIhoEC9JjgkTMI6DmIjDicGVEA4dsbHnFzWNdNZF5q/k3izm4AAEBYWLajsWSkt4cXgAj1Zem6lmmImmZrOmKm2XIChpSP1AoMK4B11fUPwOUp2tli3kMkM7oSZ6Hb1u9ouG+4d4YVAIHXWuvQOHajhJ4a7vUhAtiws2lOJuzM0W7iMk6HOycBV8GE5Ru2NQyJ3BoiAFHq5/a4ZC1nDPMEcEpZnkFnC4rkZ4Nfu+qTlW9p8CqFn9jnknU0x8yrtCMm2nISIXpi9cGDnoGvXfXJugJ42IW7cQ1LY4zRPvL0N25CQmg0MkMADEydcibw4KDXBvyhpNRel6wjRoRdPamvYO/q0WC497HQEESMq+r4igDK97T4Fcsq+12yBtZ0NBiMj2PJi6AuqqHRYLAWd9iEC+AfPllz1Hflr/5futu7FjE42xmnzEfTeru6mh4tKRHURTXURnrvY80zxtUugjAxEA3f2//ngC5AZVQqN+segDQIgJ09Gt7u0dEex3QuJIS3wzpqIr33ghi6x2uxtzbDuFLXV9o2IVlKGdTXERE8Pj+i4d6U+sYY44jhxXxNoUBT+LYmyCYBgdAuwJcG4YjBaDQYxgCheHxZDn0C6xDwUgBrgD4BPLO1/voYKONSujXdC+UxYER7H+YYAhyOMQ7HOa3TPH5oegY1/30wULCxtmn6b5YWnmEAMDTc7bRTVuHxBaB5Eo9i17x+eHxxhdW5klhM3QP0jQEUcI+z7liLxxeAxx8EKI7BIDE8/mx4vJlb+QBA0lvnOgAQ4bvOumM9mu6FpnthRCMwjCiUEQOkr7MnAms6WPNk3oBvZO4AAL28XDisGout3zAuPdA8XmjXTiWPiIgqgghx550N+VadsTNO+kLME9bubLpB12IozKDZ36h4NeCuuT7cPtuHmVN1TAoyiARtHYIT52I4eLwHHx6NIBLLgOe/caApFOoCyc+k+f9I3F3gw+P3BTEpOLivI0zJIUzJ8WLhbC8e/b7Cf+/txIHP3BsIGi8Cla/3nquXuTARfro4C4sXxDeqnxRk/NPyHBRc78EbuzuhJHNbAybKZ1i0uVO6kEjlD+SBBX48sTizh0YiciOLSEY8/x+Ouwt8SVV+Pw8s8OPuub6xL3QpBMplIsl12hEr8GrA4/el/g3++/uC8LoyMW5sFJDLpDDFaUes4K65vmEGfIkzOZtxx5xMbQVULguQeY+7ANw+27xKW2iirXSCiQMsQEYui82cal4Uz8xpmRQRdBU+vnKEeoZhRvPfz2QTbaUTCsqXmZ8MSJeDOdMehkLan3CdDJfazduk8VKHu5NDR4LBPUzITAEcP2PeUu6x0xm7LNzDBNh+WqUd1B3pMM3WR83m2UonlKhuBuOi045Ywf7GTlzqSL0buBiK4c8ZKgCAL7ASykgBRAzB67vOp2zn9V3nEbVrz2ebYeACE1Hq/6U0hDUdf2psx65Pkj9soqbuMg40d2RYZtA3COQCA+qvTjtiBf2ZQf9Zcz4pEdTUXcZ/9bUgGZUZNBCiVp2IW1y6C9qosO4BIhqUGHhl51dobO3GE0tyMSVn9G/zxVAMr+86jwP9/X4mZgb1ISKtujKkhTnzIoIGZwb9qbEddUc68LeF2bizIAezvu3DlOxeMXzdEcPxL8P46EgH/tzcgeiAkLBMzAzqh8AtuqZJ0yjbyLmawZlBEUPwQX07PqiPbwPJTM0M6ocgjez7uLhVQWXqPGc8M2gkBJdfKJn/BVdUkGKQ5efUO8l4ZtBQhNAAIukbEVEdgLsc9chixjODBqPqgL7UMFFqP7F7t4RPhPHMoF5IaD/Qv0GERw446s04tmNwrwB0AKhcdvOp9dsOHwPzTc66ZS2kM3Jm5iF7xnUI5AahZ/W2BLGuKMLn29HRehGhlguQmNu3hh0DhebNq4rOAgMPjWKuBZCZAiDChFm5yLsrH3pgaPOvB73IDl6H7BnXIfeOGTj/4QmEPr/ggKM2wVJ75df+X4hQO/zVLocI0743C9MXzR228gejZ3kx/f4CTP3ebIAyc32EiIcKwBcM7hWl3HtIznD0Vf7EgmkJ3zpp3jRMvWeWBU45TpuvS/b1/3FFABWL8sPEvM0Zn6xhwqzcpCq/n0nzpmHCrEzLm5GtFaVFV6LArgoKVUq22O+QNZDOyLsrP2U7eXfOBGuZ0xUQ0VV1fJUAsnroPQBf2eqRReTMzIurzx8LPehF9swMSZ9U6uzX08JXnSh6lQAqSosiELxhq1MWkT3jurS05ShEr7+6cOFVZ+kMyQtQRL+3zyPrCOSal9rtz82MHXQNHa8Nfm2IAKpK5h8TUe/a45J19C/ypJstB9mxeVnx54NfHDYzSKBttt6fcexEiRq2TocVQFVJ4ftQ6pC1LllLtNO8ZI5Yp4vPDQQAwcGqkuJ9w701fG4gkSjSKix1ymK6zrWZaCv5yOJ0QFg9O1Ky5IjJoVUlhduUwifWuWUtoeNnTbN1+dgZ02zZjYj6qHJ5cc1I74+cHUwkmoZfWuKVDVw6esaUbiDaEUabmwUA7ZnRUqVHTQ9/fkXRu26dEYihcPqD1CPdTu9thCiXxs2Lqq5aOX/3aJeMvT8A0xoArkuOYk1H22encfHwyaRtXDjUirZjp92ZGSSIKtKGPS10IGMKoHJFcTOA35rilI30Zwader8+KRFcONSKL/f2tiBuzAwSoKqqZP6xsa6La4cQv4TLlcKJ1N2yj/4zgyCCU7sP42TNJ4h2jD2di3aEcXLHJ/hyT31v0KgbM4OUOhbICf4qnkvjatsqVi7sKqtuXA3IH1PzzD4GZwa1fXYaoeNnMXHOtzBx9nQEpk6EJ9ibLxDtDKP7bBsuHz+DtmNnIMY3IWGuzAxiWl2xKD+uxYu4O7eqlfN3r9/e8DIA10QPD84MUobCpeZTuNR8Kr77XZkZJC+9UFK8N96rE9okyp8dXC9KXJVEci1lBimFT7s038ZE7klIABWL8sMaa48pl20rcy1kBimoDtLksf9YNiehxY+Et4nbVFLYoCkMOYY83dF0L/zBCfD4gmDdCxADoN4fYrDuhe4Lwh+c6MJmHyDwT/tmbAmR1D6Bz68qelOg7Jkampy6rnm88Pp7K9qfPan3JzgRXn/Q9NE+sU3bMAoqK0uK/ieZW5P2sKX7SJkCtid7f7x4Au7ds18PWD+DEIWtJ8JNCfX7A0laAG+XlhpZ3fg7QP6SrI14COT+jZXmLSWQN9XaApSqC1D48bdLS5NeqU2pjaooLepgJcuUkqOp2BmNwLTp0LPcNxfXs7IQmJp8SPqYKDSzJ7aiYuXClAbkKXdSm1YtOEcetVhBWlO1NRykaZhcUOQqEehZWZg8r8jKZwgtGkcf3LTstpR3eDNthLVhx+GZhtBuBs0wyyYAhM6dgoqEIUqh69xphM+fR6y7C6LSK4GTmKEHshDIm4rA1GkgZrDXjwlTv2N2US2Iafe/8Mi8VjOMmTrEfmZr/fURxh+ZaY5ZNsPtbQi3uTNRMzA5D77siabZU8ARD6IP/Kbk1i/NsmnqPOW5R4q/0CH3mhlJ5MueAHbbwxgAmscHbzDHPINK1ela5F4zKx8wWQBA75ggqwc/MGuKSMTIzvuWq0SgeXwI5k0HkTn/XlHY6qfIIjP6/MFYlvT2oy1btJmBeZUArTHDnohCpLMdPZ3tkGgEImk2BiAGebzwBXPgDeaYVvkQVJ4IN21MZao3GpZnPa7bXv+ogF7jDD2cyioUVAcLPfHCyuL/tbIcW9Jen97eVGQo401iKrKjPLejFD7VST26aeWCI1aXZcti9aaSwoZouP0OAC/bUZ6bEZEXwx7vnXZUPmBTCzCQsurGxRB5lRkz7S47rVHqGJhWJxLMYQa2nxpWtXL+7iwKF0NQqRQy8zSmRBBERfCbSLjjZrsrH3CgBRhI2TufziXil4hpmZN+OIaoakXaU/FE71pFWux9sqG6fomAngNhodO+2IGI+kigPTNW0oYdpIUAAAAiVLajsYQh5QDd5rQ7liA4KKyerVxeXJMuJ1umjwD6EaGynQ0/IANPZVDXsEOJ2lxVUrwvXSq+n/QTwAA2bGuYrUh+JkRPMGBxdIXJKHUWRK8bOl4bbmeOdCGtBdDP6oMHPVPOBB4UMUoB/iEI5j1iM5c2QLYS0Zavp4V3D96QKR1xhQAG8mTNUV8gGr4XjKUCXspAgaMOKTSDpZaIa31dsm/gJoxuwHUCGMzG2qbpsZi6hwT3ALgDpIoBNvE57DeIUiEw1wOqjoT2G0z7N68oMm8nCgdwvQCGIEJrdzbdoCkUClQ+E+WLyI0EylVALqBymTgAwKegfEDvKdoAepSoboAvMHBBIBdA1CoirQRuIUjjCyXzv0i3QVyq/D+QkEs08kWrogAAAABJRU5ErkJggg==;" parent="1" vertex="1">
          <mxGeometry x="877" y="1809" width="100" height="100" as="geometry" />
        </mxCell>
        <mxCell id="-7zeq6VQ6AYaPace1Qw7-29" style="edgeStyle=orthogonalEdgeStyle;rounded=0;orthogonalLoop=1;jettySize=auto;html=1;" parent="1" source="-7zeq6VQ6AYaPace1Qw7-21" target="-7zeq6VQ6AYaPace1Qw7-14" edge="1">
          <mxGeometry relative="1" as="geometry">
            <Array as="points">
              <mxPoint x="1027" y="1859" />
              <mxPoint x="1027" y="2039" />
            </Array>
          </mxGeometry>
        </mxCell>
        <mxCell id="wneV9AmQcglOjSwLp_fo-21" style="edgeStyle=orthogonalEdgeStyle;rounded=0;orthogonalLoop=1;jettySize=auto;html=1;" edge="1" parent="1" source="-7zeq6VQ6AYaPace1Qw7-51" target="-7zeq6VQ6AYaPace1Qw7-18">
          <mxGeometry relative="1" as="geometry">
            <Array as="points">
              <mxPoint x="2656" y="1670" />
              <mxPoint x="2656" y="1850" />
            </Array>
          </mxGeometry>
        </mxCell>
        <mxCell id="wneV9AmQcglOjSwLp_fo-31" style="edgeStyle=orthogonalEdgeStyle;rounded=0;orthogonalLoop=1;jettySize=auto;html=1;" edge="1" parent="1" source="-7zeq6VQ6AYaPace1Qw7-51" target="-7zeq6VQ6AYaPace1Qw7-11">
          <mxGeometry relative="1" as="geometry">
            <Array as="points">
              <mxPoint x="2257" y="1670" />
            </Array>
          </mxGeometry>
        </mxCell>
        <mxCell id="-7zeq6VQ6AYaPace1Qw7-51" value="" style="shape=image;verticalLabelPosition=bottom;labelBackgroundColor=#ffffff;verticalAlign=top;aspect=fixed;imageAspect=0;image=data:image/png,iVBORw0KGgoAAAANSUhEUgAAAIAAAACACAYAAADDPmHLAAAABHNCSVQICAgIfAhkiAAAAAlwSFlzAAALEwAACxMBAJqcGAAAEjNJREFUeJztnWtwVGWax//Pc07f0gk3kwVmRiWAEEKCN0ZdndFBFOUSGD9MSnedGqdqhprdWndrwQDi1MbsjIMm6Ey5n3TH1Q9b5Yi7hQRIxBoE2YHRiFNIbghIwohcBCR0bp3uPu+zH5JgyLUv59Knya8qVUn3Oc/7dN5/v7fzPO9LyDDKy4U772zI12IoFEg+CDMAvkFE8ogklxSmCJAlgBcMLwBAIUJAhIAuMC4qoYtEdB5QfyXiFmVIi6ZJk+/j4taKClLOfkJzIacdSJVnttZfb2i4WwH3EOG7UFQMRtCKshRUB4MaAKoTpfbDIwcql918yoqy7MJ1Aijf0+Lvbu9aBKilQrKUwbMddUipY2CuJUKtLxjcW7EoP+yoPwniCgGUb2nwdgXwMCspBctKgHOc9mk4RKkQMW9TSrZk9dB7FaVFEad9Gou0FsCGnU1zRKmfK4WfMCPPaX8S5CsI3lBEv68qmX/MaWdGIv0EIELrqusfIPBaMB5y2h0zEFHvCrTNVSWF74NInPZnIGkjgPJy4fDtDY+A6N8ALHDaH0tQ6pAiraKqpHBbugjBeQGI0Lqd9cvIwK/BfIvT7tiBUvhE0/DL51cUveu0L44KYN22xvnE8lsADzrph1OIqHfBtKZyRXGzUz44IoC1uw4FtQj/isD/DEBzwod0QSnEmPE7v4TLK1Yu7LK7fNsFsKG6folBeIVBM+wuO51RCidAtLpq5fzddpZrmwDKqw9mdcG/mQn/YFeZLuVlf3ZwvV0LSrYIYP32+psV6A8MFNhRntsRJQ0aa49tKilssLostrqAsur6HyslH45XfvwQU1EM6qN12+sftbwsqwyX79mjd7fnvkRET1pVxrWBvHSiu3nd26WlhhXWLRFA2TvNOazF3gJoqRX2rzUUsF15Y4+9+NAtnWbbNl0AG2ubphuRWM21sqhjH/IXVrJs06oF58y0aqoA1lc33KBI7Xb8EW2GopQcJY9abGYMgmkCeKqmfhYZ8j6DbzDL5kCUYeDS8WaETn6OSKgNotIrMIeY4ZswGRNunInJs+eBNGvWtxSkVSNZ/PyKBSfMsGeKAPq++f9nVeXHOjvwxb730NN+2QrzpuObMAnfuXcJPFmWBCZBQVpJU983oyVIeRq4sbZpel+zb9k3302VDwA9oTac2vcelGHJwB0MmiFR3v30tsNTU7eVAmXvNOcYkViNlX3+pePNrqr8fnpCbWj73LpnPMw0JwbeuXbXoZSamaQFUL5nj85a7C2rR/uhk59bad5SQidN6aZHhBm3c0R/80dbtiQ94EhaAN3tuS/ZMc+PhNqsLsIy7PCdgZKZgXmVKdyfOGXV9T+2a4Uv3Ub7iWDVGGAotCbZZeOEBbB+e/3NEHk1mcLGsQ4Bvfb09qaiRO9LSADl1QezFOgPzOxPtKBxrIWBLEMZb5bvaUmobhISQJj8VeNP9dIXYirqbu98PpF79Hgv3FBdv0SAf0zcrfRBh2CehHETRTANUWSLAkHQAQ1noeMofGgmP2JpECubLET4l7Lqxu3xRhbF1QKUb2nINgivpOaas8xDGL+QC1iOEOZIGBPEAENAAHJg4Cb0YDlC+IVcQCFcld01BIa88q9vHQjEd20cdAfUv7s1ho8APIwQVsllZGPsGUU2FFbKZTwkIfe2A4RZ3sCEZ+O5dEwBrNvWOL8veteVPIQQbpHuhO+7Fd1YIiELPLIHJVhT9s6nc8e6bnQBiFBf3L4rQ7fnIZxU5fdzK7pd2x0wQwdrL4553WhvrttZvwwuTdrQIVgs7SnbuV86oCMtsrgShgnLN1TXLxn1mpHeKC8XJgO/Nt8te5gn4bj6/LHIhoEC9JjgkTMI6DmIjDicGVEA4dsbHnFzWNdNZF5q/k3izm4AAEBYWLajsWSkt4cXgAj1Zem6lmmImmZrOmKm2XIChpSP1AoMK4B11fUPwOUp2tli3kMkM7oSZ6Hb1u9ouG+4d4YVAIHXWuvQOHajhJ4a7vUhAtiws2lOJuzM0W7iMk6HOycBV8GE5Ru2NQyJ3BoiAFHq5/a4ZC1nDPMEcEpZnkFnC4rkZ4Nfu+qTlW9p8CqFn9jnknU0x8yrtCMm2nISIXpi9cGDnoGvXfXJugJ42IW7cQ1LY4zRPvL0N25CQmg0MkMADEydcibw4KDXBvyhpNRel6wjRoRdPamvYO/q0WC497HQEESMq+r4igDK97T4Fcsq+12yBtZ0NBiMj2PJi6AuqqHRYLAWd9iEC+AfPllz1Hflr/5futu7FjE42xmnzEfTeru6mh4tKRHURTXURnrvY80zxtUugjAxEA3f2//ngC5AZVQqN+segDQIgJ09Gt7u0dEex3QuJIS3wzpqIr33ghi6x2uxtzbDuFLXV9o2IVlKGdTXERE8Pj+i4d6U+sYY44jhxXxNoUBT+LYmyCYBgdAuwJcG4YjBaDQYxgCheHxZDn0C6xDwUgBrgD4BPLO1/voYKONSujXdC+UxYER7H+YYAhyOMQ7HOa3TPH5oegY1/30wULCxtmn6b5YWnmEAMDTc7bRTVuHxBaB5Eo9i17x+eHxxhdW5klhM3QP0jQEUcI+z7liLxxeAxx8EKI7BIDE8/mx4vJlb+QBA0lvnOgAQ4bvOumM9mu6FpnthRCMwjCiUEQOkr7MnAms6WPNk3oBvZO4AAL28XDisGout3zAuPdA8XmjXTiWPiIgqgghx550N+VadsTNO+kLME9bubLpB12IozKDZ36h4NeCuuT7cPtuHmVN1TAoyiARtHYIT52I4eLwHHx6NIBLLgOe/caApFOoCyc+k+f9I3F3gw+P3BTEpOLivI0zJIUzJ8WLhbC8e/b7Cf+/txIHP3BsIGi8Cla/3nquXuTARfro4C4sXxDeqnxRk/NPyHBRc78EbuzuhJHNbAybKZ1i0uVO6kEjlD+SBBX48sTizh0YiciOLSEY8/x+Ouwt8SVV+Pw8s8OPuub6xL3QpBMplIsl12hEr8GrA4/el/g3++/uC8LoyMW5sFJDLpDDFaUes4K65vmEGfIkzOZtxx5xMbQVULguQeY+7ANw+27xKW2iirXSCiQMsQEYui82cal4Uz8xpmRQRdBU+vnKEeoZhRvPfz2QTbaUTCsqXmZ8MSJeDOdMehkLan3CdDJfazduk8VKHu5NDR4LBPUzITAEcP2PeUu6x0xm7LNzDBNh+WqUd1B3pMM3WR83m2UonlKhuBuOi045Ywf7GTlzqSL0buBiK4c8ZKgCAL7ASykgBRAzB67vOp2zn9V3nEbVrz2ebYeACE1Hq/6U0hDUdf2psx65Pkj9soqbuMg40d2RYZtA3COQCA+qvTjtiBf2ZQf9Zcz4pEdTUXcZ/9bUgGZUZNBCiVp2IW1y6C9qosO4BIhqUGHhl51dobO3GE0tyMSVn9G/zxVAMr+86jwP9/X4mZgb1ISKtujKkhTnzIoIGZwb9qbEddUc68LeF2bizIAezvu3DlOxeMXzdEcPxL8P46EgH/tzcgeiAkLBMzAzqh8AtuqZJ0yjbyLmawZlBEUPwQX07PqiPbwPJTM0M6ocgjez7uLhVQWXqPGc8M2gkBJdfKJn/BVdUkGKQ5efUO8l4ZtBQhNAAIukbEVEdgLsc9chixjODBqPqgL7UMFFqP7F7t4RPhPHMoF5IaD/Qv0GERw446s04tmNwrwB0AKhcdvOp9dsOHwPzTc66ZS2kM3Jm5iF7xnUI5AahZ/W2BLGuKMLn29HRehGhlguQmNu3hh0DhebNq4rOAgMPjWKuBZCZAiDChFm5yLsrH3pgaPOvB73IDl6H7BnXIfeOGTj/4QmEPr/ggKM2wVJ75df+X4hQO/zVLocI0743C9MXzR228gejZ3kx/f4CTP3ebIAyc32EiIcKwBcM7hWl3HtIznD0Vf7EgmkJ3zpp3jRMvWeWBU45TpuvS/b1/3FFABWL8sPEvM0Zn6xhwqzcpCq/n0nzpmHCrEzLm5GtFaVFV6LArgoKVUq22O+QNZDOyLsrP2U7eXfOBGuZ0xUQ0VV1fJUAsnroPQBf2eqRReTMzIurzx8LPehF9swMSZ9U6uzX08JXnSh6lQAqSosiELxhq1MWkT3jurS05ShEr7+6cOFVZ+kMyQtQRL+3zyPrCOSal9rtz82MHXQNHa8Nfm2IAKpK5h8TUe/a45J19C/ypJstB9mxeVnx54NfHDYzSKBttt6fcexEiRq2TocVQFVJ4ftQ6pC1LllLtNO8ZI5Yp4vPDQQAwcGqkuJ9w701fG4gkSjSKix1ymK6zrWZaCv5yOJ0QFg9O1Ky5IjJoVUlhduUwifWuWUtoeNnTbN1+dgZ02zZjYj6qHJ5cc1I74+cHUwkmoZfWuKVDVw6esaUbiDaEUabmwUA7ZnRUqVHTQ9/fkXRu26dEYihcPqD1CPdTu9thCiXxs2Lqq5aOX/3aJeMvT8A0xoArkuOYk1H22encfHwyaRtXDjUirZjp92ZGSSIKtKGPS10IGMKoHJFcTOA35rilI30Zwader8+KRFcONSKL/f2tiBuzAwSoKqqZP6xsa6La4cQv4TLlcKJ1N2yj/4zgyCCU7sP42TNJ4h2jD2di3aEcXLHJ/hyT31v0KgbM4OUOhbICf4qnkvjatsqVi7sKqtuXA3IH1PzzD4GZwa1fXYaoeNnMXHOtzBx9nQEpk6EJ9ibLxDtDKP7bBsuHz+DtmNnIMY3IWGuzAxiWl2xKD+uxYu4O7eqlfN3r9/e8DIA10QPD84MUobCpeZTuNR8Kr77XZkZJC+9UFK8N96rE9okyp8dXC9KXJVEci1lBimFT7s038ZE7klIABWL8sMaa48pl20rcy1kBimoDtLksf9YNiehxY+Et4nbVFLYoCkMOYY83dF0L/zBCfD4gmDdCxADoN4fYrDuhe4Lwh+c6MJmHyDwT/tmbAmR1D6Bz68qelOg7Jkampy6rnm88Pp7K9qfPan3JzgRXn/Q9NE+sU3bMAoqK0uK/ieZW5P2sKX7SJkCtid7f7x4Au7ds18PWD+DEIWtJ8JNCfX7A0laAG+XlhpZ3fg7QP6SrI14COT+jZXmLSWQN9XaApSqC1D48bdLS5NeqU2pjaooLepgJcuUkqOp2BmNwLTp0LPcNxfXs7IQmJp8SPqYKDSzJ7aiYuXClAbkKXdSm1YtOEcetVhBWlO1NRykaZhcUOQqEehZWZg8r8jKZwgtGkcf3LTstpR3eDNthLVhx+GZhtBuBs0wyyYAhM6dgoqEIUqh69xphM+fR6y7C6LSK4GTmKEHshDIm4rA1GkgZrDXjwlTv2N2US2Iafe/8Mi8VjOMmTrEfmZr/fURxh+ZaY5ZNsPtbQi3uTNRMzA5D77siabZU8ARD6IP/Kbk1i/NsmnqPOW5R4q/0CH3mhlJ5MueAHbbwxgAmscHbzDHPINK1ela5F4zKx8wWQBA75ggqwc/MGuKSMTIzvuWq0SgeXwI5k0HkTn/XlHY6qfIIjP6/MFYlvT2oy1btJmBeZUArTHDnohCpLMdPZ3tkGgEImk2BiAGebzwBXPgDeaYVvkQVJ4IN21MZao3GpZnPa7bXv+ogF7jDD2cyioUVAcLPfHCyuL/tbIcW9Jen97eVGQo401iKrKjPLejFD7VST26aeWCI1aXZcti9aaSwoZouP0OAC/bUZ6bEZEXwx7vnXZUPmBTCzCQsurGxRB5lRkz7S47rVHqGJhWJxLMYQa2nxpWtXL+7iwKF0NQqRQy8zSmRBBERfCbSLjjZrsrH3CgBRhI2TufziXil4hpmZN+OIaoakXaU/FE71pFWux9sqG6fomAngNhodO+2IGI+kigPTNW0oYdpIUAAAAiVLajsYQh5QDd5rQ7liA4KKyerVxeXJMuJ1umjwD6EaGynQ0/IANPZVDXsEOJ2lxVUrwvXSq+n/QTwAA2bGuYrUh+JkRPMGBxdIXJKHUWRK8bOl4bbmeOdCGtBdDP6oMHPVPOBB4UMUoB/iEI5j1iM5c2QLYS0Zavp4V3D96QKR1xhQAG8mTNUV8gGr4XjKUCXspAgaMOKTSDpZaIa31dsm/gJoxuwHUCGMzG2qbpsZi6hwT3ALgDpIoBNvE57DeIUiEw1wOqjoT2G0z7N68oMm8nCgdwvQCGIEJrdzbdoCkUClQ+E+WLyI0EylVALqBymTgAwKegfEDvKdoAepSoboAvMHBBIBdA1CoirQRuIUjjCyXzv0i3QVyq/D+QkEs08kWrogAAAABJRU5ErkJggg==;" parent="1" vertex="1">
          <mxGeometry x="2497" y="1620" width="100" height="100" as="geometry" />
        </mxCell>
        <mxCell id="-7zeq6VQ6AYaPace1Qw7-52" value="mutex_camera" style="text;html=1;strokeColor=none;fillColor=none;align=center;verticalAlign=middle;whiteSpace=wrap;rounded=0;" parent="1" vertex="1">
          <mxGeometry x="2447" y="1729" width="200" height="20" as="geometry" />
        </mxCell>
        <mxCell id="wneV9AmQcglOjSwLp_fo-6" value="" style="group" vertex="1" connectable="0" parent="1">
          <mxGeometry x="1327" y="1359" width="200" height="140" as="geometry" />
        </mxCell>
        <mxCell id="wneV9AmQcglOjSwLp_fo-7" value="" style="shape=image;verticalLabelPosition=bottom;labelBackgroundColor=#ffffff;verticalAlign=top;aspect=fixed;imageAspect=0;image=data:image/png,iVBORw0KGgoAAAANSUhEUgAAAIAAAACACAYAAADDPmHLAAAABHNCSVQICAgIfAhkiAAAAAlwSFlzAAALEwAACxMBAJqcGAAAEjNJREFUeJztnWtwVGWax//Pc07f0gk3kwVmRiWAEEKCN0ZdndFBFOUSGD9MSnedGqdqhprdWndrwQDi1MbsjIMm6Ey5n3TH1Q9b5Yi7hQRIxBoE2YHRiFNIbghIwohcBCR0bp3uPu+zH5JgyLUv59Knya8qVUn3Oc/7dN5/v7fzPO9LyDDKy4U772zI12IoFEg+CDMAvkFE8ogklxSmCJAlgBcMLwBAIUJAhIAuMC4qoYtEdB5QfyXiFmVIi6ZJk+/j4taKClLOfkJzIacdSJVnttZfb2i4WwH3EOG7UFQMRtCKshRUB4MaAKoTpfbDIwcql918yoqy7MJ1Aijf0+Lvbu9aBKilQrKUwbMddUipY2CuJUKtLxjcW7EoP+yoPwniCgGUb2nwdgXwMCspBctKgHOc9mk4RKkQMW9TSrZk9dB7FaVFEad9Gou0FsCGnU1zRKmfK4WfMCPPaX8S5CsI3lBEv68qmX/MaWdGIv0EIELrqusfIPBaMB5y2h0zEFHvCrTNVSWF74NInPZnIGkjgPJy4fDtDY+A6N8ALHDaH0tQ6pAiraKqpHBbugjBeQGI0Lqd9cvIwK/BfIvT7tiBUvhE0/DL51cUveu0L44KYN22xvnE8lsADzrph1OIqHfBtKZyRXGzUz44IoC1uw4FtQj/isD/DEBzwod0QSnEmPE7v4TLK1Yu7LK7fNsFsKG6folBeIVBM+wuO51RCidAtLpq5fzddpZrmwDKqw9mdcG/mQn/YFeZLuVlf3ZwvV0LSrYIYP32+psV6A8MFNhRntsRJQ0aa49tKilssLostrqAsur6HyslH45XfvwQU1EM6qN12+sftbwsqwyX79mjd7fnvkRET1pVxrWBvHSiu3nd26WlhhXWLRFA2TvNOazF3gJoqRX2rzUUsF15Y4+9+NAtnWbbNl0AG2ubphuRWM21sqhjH/IXVrJs06oF58y0aqoA1lc33KBI7Xb8EW2GopQcJY9abGYMgmkCeKqmfhYZ8j6DbzDL5kCUYeDS8WaETn6OSKgNotIrMIeY4ZswGRNunInJs+eBNGvWtxSkVSNZ/PyKBSfMsGeKAPq++f9nVeXHOjvwxb730NN+2QrzpuObMAnfuXcJPFmWBCZBQVpJU983oyVIeRq4sbZpel+zb9k3302VDwA9oTac2vcelGHJwB0MmiFR3v30tsNTU7eVAmXvNOcYkViNlX3+pePNrqr8fnpCbWj73LpnPMw0JwbeuXbXoZSamaQFUL5nj85a7C2rR/uhk59bad5SQidN6aZHhBm3c0R/80dbtiQ94EhaAN3tuS/ZMc+PhNqsLsIy7PCdgZKZgXmVKdyfOGXV9T+2a4Uv3Ub7iWDVGGAotCbZZeOEBbB+e/3NEHk1mcLGsQ4Bvfb09qaiRO9LSADl1QezFOgPzOxPtKBxrIWBLEMZb5bvaUmobhISQJj8VeNP9dIXYirqbu98PpF79Hgv3FBdv0SAf0zcrfRBh2CehHETRTANUWSLAkHQAQ1noeMofGgmP2JpECubLET4l7Lqxu3xRhbF1QKUb2nINgivpOaas8xDGL+QC1iOEOZIGBPEAENAAHJg4Cb0YDlC+IVcQCFcld01BIa88q9vHQjEd20cdAfUv7s1ho8APIwQVsllZGPsGUU2FFbKZTwkIfe2A4RZ3sCEZ+O5dEwBrNvWOL8veteVPIQQbpHuhO+7Fd1YIiELPLIHJVhT9s6nc8e6bnQBiFBf3L4rQ7fnIZxU5fdzK7pd2x0wQwdrL4553WhvrttZvwwuTdrQIVgs7SnbuV86oCMtsrgShgnLN1TXLxn1mpHeKC8XJgO/Nt8te5gn4bj6/LHIhoEC9JjgkTMI6DmIjDicGVEA4dsbHnFzWNdNZF5q/k3izm4AAEBYWLajsWSkt4cXgAj1Zem6lmmImmZrOmKm2XIChpSP1AoMK4B11fUPwOUp2tli3kMkM7oSZ6Hb1u9ouG+4d4YVAIHXWuvQOHajhJ4a7vUhAtiws2lOJuzM0W7iMk6HOycBV8GE5Ru2NQyJ3BoiAFHq5/a4ZC1nDPMEcEpZnkFnC4rkZ4Nfu+qTlW9p8CqFn9jnknU0x8yrtCMm2nISIXpi9cGDnoGvXfXJugJ42IW7cQ1LY4zRPvL0N25CQmg0MkMADEydcibw4KDXBvyhpNRel6wjRoRdPamvYO/q0WC497HQEESMq+r4igDK97T4Fcsq+12yBtZ0NBiMj2PJi6AuqqHRYLAWd9iEC+AfPllz1Hflr/5futu7FjE42xmnzEfTeru6mh4tKRHURTXURnrvY80zxtUugjAxEA3f2//ngC5AZVQqN+segDQIgJ09Gt7u0dEex3QuJIS3wzpqIr33ghi6x2uxtzbDuFLXV9o2IVlKGdTXERE8Pj+i4d6U+sYY44jhxXxNoUBT+LYmyCYBgdAuwJcG4YjBaDQYxgCheHxZDn0C6xDwUgBrgD4BPLO1/voYKONSujXdC+UxYER7H+YYAhyOMQ7HOa3TPH5oegY1/30wULCxtmn6b5YWnmEAMDTc7bRTVuHxBaB5Eo9i17x+eHxxhdW5klhM3QP0jQEUcI+z7liLxxeAxx8EKI7BIDE8/mx4vJlb+QBA0lvnOgAQ4bvOumM9mu6FpnthRCMwjCiUEQOkr7MnAms6WPNk3oBvZO4AAL28XDisGout3zAuPdA8XmjXTiWPiIgqgghx550N+VadsTNO+kLME9bubLpB12IozKDZ36h4NeCuuT7cPtuHmVN1TAoyiARtHYIT52I4eLwHHx6NIBLLgOe/caApFOoCyc+k+f9I3F3gw+P3BTEpOLivI0zJIUzJ8WLhbC8e/b7Cf+/txIHP3BsIGi8Cla/3nquXuTARfro4C4sXxDeqnxRk/NPyHBRc78EbuzuhJHNbAybKZ1i0uVO6kEjlD+SBBX48sTizh0YiciOLSEY8/x+Ouwt8SVV+Pw8s8OPuub6xL3QpBMplIsl12hEr8GrA4/el/g3++/uC8LoyMW5sFJDLpDDFaUes4K65vmEGfIkzOZtxx5xMbQVULguQeY+7ANw+27xKW2iirXSCiQMsQEYui82cal4Uz8xpmRQRdBU+vnKEeoZhRvPfz2QTbaUTCsqXmZ8MSJeDOdMehkLan3CdDJfazduk8VKHu5NDR4LBPUzITAEcP2PeUu6x0xm7LNzDBNh+WqUd1B3pMM3WR83m2UonlKhuBuOi045Ywf7GTlzqSL0buBiK4c8ZKgCAL7ASykgBRAzB67vOp2zn9V3nEbVrz2ebYeACE1Hq/6U0hDUdf2psx65Pkj9soqbuMg40d2RYZtA3COQCA+qvTjtiBf2ZQf9Zcz4pEdTUXcZ/9bUgGZUZNBCiVp2IW1y6C9qosO4BIhqUGHhl51dobO3GE0tyMSVn9G/zxVAMr+86jwP9/X4mZgb1ISKtujKkhTnzIoIGZwb9qbEddUc68LeF2bizIAezvu3DlOxeMXzdEcPxL8P46EgH/tzcgeiAkLBMzAzqh8AtuqZJ0yjbyLmawZlBEUPwQX07PqiPbwPJTM0M6ocgjez7uLhVQWXqPGc8M2gkBJdfKJn/BVdUkGKQ5efUO8l4ZtBQhNAAIukbEVEdgLsc9chixjODBqPqgL7UMFFqP7F7t4RPhPHMoF5IaD/Qv0GERw446s04tmNwrwB0AKhcdvOp9dsOHwPzTc66ZS2kM3Jm5iF7xnUI5AahZ/W2BLGuKMLn29HRehGhlguQmNu3hh0DhebNq4rOAgMPjWKuBZCZAiDChFm5yLsrH3pgaPOvB73IDl6H7BnXIfeOGTj/4QmEPr/ggKM2wVJ75df+X4hQO/zVLocI0743C9MXzR228gejZ3kx/f4CTP3ebIAyc32EiIcKwBcM7hWl3HtIznD0Vf7EgmkJ3zpp3jRMvWeWBU45TpuvS/b1/3FFABWL8sPEvM0Zn6xhwqzcpCq/n0nzpmHCrEzLm5GtFaVFV6LArgoKVUq22O+QNZDOyLsrP2U7eXfOBGuZ0xUQ0VV1fJUAsnroPQBf2eqRReTMzIurzx8LPehF9swMSZ9U6uzX08JXnSh6lQAqSosiELxhq1MWkT3jurS05ShEr7+6cOFVZ+kMyQtQRL+3zyPrCOSal9rtz82MHXQNHa8Nfm2IAKpK5h8TUe/a45J19C/ypJstB9mxeVnx54NfHDYzSKBttt6fcexEiRq2TocVQFVJ4ftQ6pC1LllLtNO8ZI5Yp4vPDQQAwcGqkuJ9w701fG4gkSjSKix1ymK6zrWZaCv5yOJ0QFg9O1Ky5IjJoVUlhduUwifWuWUtoeNnTbN1+dgZ02zZjYj6qHJ5cc1I74+cHUwkmoZfWuKVDVw6esaUbiDaEUabmwUA7ZnRUqVHTQ9/fkXRu26dEYihcPqD1CPdTu9thCiXxs2Lqq5aOX/3aJeMvT8A0xoArkuOYk1H22encfHwyaRtXDjUirZjp92ZGSSIKtKGPS10IGMKoHJFcTOA35rilI30Zwader8+KRFcONSKL/f2tiBuzAwSoKqqZP6xsa6La4cQv4TLlcKJ1N2yj/4zgyCCU7sP42TNJ4h2jD2di3aEcXLHJ/hyT31v0KgbM4OUOhbICf4qnkvjatsqVi7sKqtuXA3IH1PzzD4GZwa1fXYaoeNnMXHOtzBx9nQEpk6EJ9ibLxDtDKP7bBsuHz+DtmNnIMY3IWGuzAxiWl2xKD+uxYu4O7eqlfN3r9/e8DIA10QPD84MUobCpeZTuNR8Kr77XZkZJC+9UFK8N96rE9okyp8dXC9KXJVEci1lBimFT7s038ZE7klIABWL8sMaa48pl20rcy1kBimoDtLksf9YNiehxY+Et4nbVFLYoCkMOYY83dF0L/zBCfD4gmDdCxADoN4fYrDuhe4Lwh+c6MJmHyDwT/tmbAmR1D6Bz68qelOg7Jkampy6rnm88Pp7K9qfPan3JzgRXn/Q9NE+sU3bMAoqK0uK/ieZW5P2sKX7SJkCtid7f7x4Au7ds18PWD+DEIWtJ8JNCfX7A0laAG+XlhpZ3fg7QP6SrI14COT+jZXmLSWQN9XaApSqC1D48bdLS5NeqU2pjaooLepgJcuUkqOp2BmNwLTp0LPcNxfXs7IQmJp8SPqYKDSzJ7aiYuXClAbkKXdSm1YtOEcetVhBWlO1NRykaZhcUOQqEehZWZg8r8jKZwgtGkcf3LTstpR3eDNthLVhx+GZhtBuBs0wyyYAhM6dgoqEIUqh69xphM+fR6y7C6LSK4GTmKEHshDIm4rA1GkgZrDXjwlTv2N2US2Iafe/8Mi8VjOMmTrEfmZr/fURxh+ZaY5ZNsPtbQi3uTNRMzA5D77siabZU8ARD6IP/Kbk1i/NsmnqPOW5R4q/0CH3mhlJ5MueAHbbwxgAmscHbzDHPINK1ela5F4zKx8wWQBA75ggqwc/MGuKSMTIzvuWq0SgeXwI5k0HkTn/XlHY6qfIIjP6/MFYlvT2oy1btJmBeZUArTHDnohCpLMdPZ3tkGgEImk2BiAGebzwBXPgDeaYVvkQVJ4IN21MZao3GpZnPa7bXv+ogF7jDD2cyioUVAcLPfHCyuL/tbIcW9Jen97eVGQo401iKrKjPLejFD7VST26aeWCI1aXZcti9aaSwoZouP0OAC/bUZ6bEZEXwx7vnXZUPmBTCzCQsurGxRB5lRkz7S47rVHqGJhWJxLMYQa2nxpWtXL+7iwKF0NQqRQy8zSmRBBERfCbSLjjZrsrH3CgBRhI2TufziXil4hpmZN+OIaoakXaU/FE71pFWux9sqG6fomAngNhodO+2IGI+kigPTNW0oYdpIUAAAAiVLajsYQh5QDd5rQ7liA4KKyerVxeXJMuJ1umjwD6EaGynQ0/IANPZVDXsEOJ2lxVUrwvXSq+n/QTwAA2bGuYrUh+JkRPMGBxdIXJKHUWRK8bOl4bbmeOdCGtBdDP6oMHPVPOBB4UMUoB/iEI5j1iM5c2QLYS0Zavp4V3D96QKR1xhQAG8mTNUV8gGr4XjKUCXspAgaMOKTSDpZaIa31dsm/gJoxuwHUCGMzG2qbpsZi6hwT3ALgDpIoBNvE57DeIUiEw1wOqjoT2G0z7N68oMm8nCgdwvQCGIEJrdzbdoCkUClQ+E+WLyI0EylVALqBymTgAwKegfEDvKdoAepSoboAvMHBBIBdA1CoirQRuIUjjCyXzv0i3QVyq/D+QkEs08kWrogAAAABJRU5ErkJggg==;" vertex="1" parent="wneV9AmQcglOjSwLp_fo-6">
          <mxGeometry x="50" width="100" height="100" as="geometry" />
        </mxCell>
        <mxCell id="wneV9AmQcglOjSwLp_fo-8" value="&lt;font style=&quot;font-size: 18px&quot;&gt;mutex_monitor&lt;br&gt;&lt;/font&gt;" style="text;html=1;strokeColor=none;fillColor=none;align=center;verticalAlign=middle;whiteSpace=wrap;rounded=0;" vertex="1" parent="wneV9AmQcglOjSwLp_fo-6">
          <mxGeometry y="120" width="200" height="20" as="geometry" />
        </mxCell>
        <object label="sem_serverOk" id="wneV9AmQcglOjSwLp_fo-9">
          <mxCell style="verticalLabelPosition=bottom;verticalAlign=top;html=1;shape=mxgraph.flowchart.collate;direction=south;rotation=90;" vertex="1" parent="1">
            <mxGeometry x="1867" y="1389" width="70" height="40" as="geometry" />
          </mxCell>
        </object>
        <mxCell id="wneV9AmQcglOjSwLp_fo-16" value="" style="edgeStyle=orthogonalEdgeStyle;rounded=0;orthogonalLoop=1;jettySize=auto;html=1;" edge="1" parent="1" source="wneV9AmQcglOjSwLp_fo-7" target="-7zeq6VQ6AYaPace1Qw7-1">
          <mxGeometry relative="1" as="geometry" />
        </mxCell>
        <mxCell id="wneV9AmQcglOjSwLp_fo-17" style="edgeStyle=orthogonalEdgeStyle;rounded=0;orthogonalLoop=1;jettySize=auto;html=1;" edge="1" parent="1" source="wneV9AmQcglOjSwLp_fo-7" target="-7zeq6VQ6AYaPace1Qw7-2">
          <mxGeometry relative="1" as="geometry">
            <Array as="points">
              <mxPoint x="1547" y="1409" />
              <mxPoint x="1547" y="1499" />
            </Array>
          </mxGeometry>
        </mxCell>
        <mxCell id="wneV9AmQcglOjSwLp_fo-25" style="edgeStyle=orthogonalEdgeStyle;rounded=0;orthogonalLoop=1;jettySize=auto;html=1;entryX=0.5;entryY=0;entryDx=0;entryDy=0;entryPerimeter=0;" edge="1" parent="1" source="-7zeq6VQ6AYaPace1Qw7-18" target="-7zeq6VQ6AYaPace1Qw7-63">
          <mxGeometry relative="1" as="geometry">
            <Array as="points">
              <mxPoint x="2971" y="1840" />
            </Array>
          </mxGeometry>
        </mxCell>
        <mxCell id="wneV9AmQcglOjSwLp_fo-26" value="{acquire}" style="edgeLabel;html=1;align=center;verticalAlign=middle;resizable=0;points=[];" vertex="1" connectable="0" parent="wneV9AmQcglOjSwLp_fo-25">
          <mxGeometry x="0.0473" y="-1" relative="1" as="geometry">
            <mxPoint x="26" y="-21" as="offset" />
          </mxGeometry>
        </mxCell>
        <mxCell id="wneV9AmQcglOjSwLp_fo-35" value="" style="edgeStyle=orthogonalEdgeStyle;rounded=0;orthogonalLoop=1;jettySize=auto;html=1;" edge="1" parent="1" source="wneV9AmQcglOjSwLp_fo-7" target="-7zeq6VQ6AYaPace1Qw7-16">
          <mxGeometry relative="1" as="geometry" />
        </mxCell>
        <mxCell id="wneV9AmQcglOjSwLp_fo-46" value="" style="group" vertex="1" connectable="0" parent="1">
          <mxGeometry x="1337" y="1678" width="200" height="140" as="geometry" />
        </mxCell>
        <mxCell id="wneV9AmQcglOjSwLp_fo-47" value="" style="shape=image;verticalLabelPosition=bottom;labelBackgroundColor=#ffffff;verticalAlign=top;aspect=fixed;imageAspect=0;image=data:image/png,iVBORw0KGgoAAAANSUhEUgAAAIAAAACACAYAAADDPmHLAAAABHNCSVQICAgIfAhkiAAAAAlwSFlzAAALEwAACxMBAJqcGAAAEjNJREFUeJztnWtwVGWax//Pc07f0gk3kwVmRiWAEEKCN0ZdndFBFOUSGD9MSnedGqdqhprdWndrwQDi1MbsjIMm6Ey5n3TH1Q9b5Yi7hQRIxBoE2YHRiFNIbghIwohcBCR0bp3uPu+zH5JgyLUv59Knya8qVUn3Oc/7dN5/v7fzPO9LyDDKy4U772zI12IoFEg+CDMAvkFE8ogklxSmCJAlgBcMLwBAIUJAhIAuMC4qoYtEdB5QfyXiFmVIi6ZJk+/j4taKClLOfkJzIacdSJVnttZfb2i4WwH3EOG7UFQMRtCKshRUB4MaAKoTpfbDIwcql918yoqy7MJ1Aijf0+Lvbu9aBKilQrKUwbMddUipY2CuJUKtLxjcW7EoP+yoPwniCgGUb2nwdgXwMCspBctKgHOc9mk4RKkQMW9TSrZk9dB7FaVFEad9Gou0FsCGnU1zRKmfK4WfMCPPaX8S5CsI3lBEv68qmX/MaWdGIv0EIELrqusfIPBaMB5y2h0zEFHvCrTNVSWF74NInPZnIGkjgPJy4fDtDY+A6N8ALHDaH0tQ6pAiraKqpHBbugjBeQGI0Lqd9cvIwK/BfIvT7tiBUvhE0/DL51cUveu0L44KYN22xvnE8lsADzrph1OIqHfBtKZyRXGzUz44IoC1uw4FtQj/isD/DEBzwod0QSnEmPE7v4TLK1Yu7LK7fNsFsKG6folBeIVBM+wuO51RCidAtLpq5fzddpZrmwDKqw9mdcG/mQn/YFeZLuVlf3ZwvV0LSrYIYP32+psV6A8MFNhRntsRJQ0aa49tKilssLostrqAsur6HyslH45XfvwQU1EM6qN12+sftbwsqwyX79mjd7fnvkRET1pVxrWBvHSiu3nd26WlhhXWLRFA2TvNOazF3gJoqRX2rzUUsF15Y4+9+NAtnWbbNl0AG2ubphuRWM21sqhjH/IXVrJs06oF58y0aqoA1lc33KBI7Xb8EW2GopQcJY9abGYMgmkCeKqmfhYZ8j6DbzDL5kCUYeDS8WaETn6OSKgNotIrMIeY4ZswGRNunInJs+eBNGvWtxSkVSNZ/PyKBSfMsGeKAPq++f9nVeXHOjvwxb730NN+2QrzpuObMAnfuXcJPFmWBCZBQVpJU983oyVIeRq4sbZpel+zb9k3302VDwA9oTac2vcelGHJwB0MmiFR3v30tsNTU7eVAmXvNOcYkViNlX3+pePNrqr8fnpCbWj73LpnPMw0JwbeuXbXoZSamaQFUL5nj85a7C2rR/uhk59bad5SQidN6aZHhBm3c0R/80dbtiQ94EhaAN3tuS/ZMc+PhNqsLsIy7PCdgZKZgXmVKdyfOGXV9T+2a4Uv3Ub7iWDVGGAotCbZZeOEBbB+e/3NEHk1mcLGsQ4Bvfb09qaiRO9LSADl1QezFOgPzOxPtKBxrIWBLEMZb5bvaUmobhISQJj8VeNP9dIXYirqbu98PpF79Hgv3FBdv0SAf0zcrfRBh2CehHETRTANUWSLAkHQAQ1noeMofGgmP2JpECubLET4l7Lqxu3xRhbF1QKUb2nINgivpOaas8xDGL+QC1iOEOZIGBPEAENAAHJg4Cb0YDlC+IVcQCFcld01BIa88q9vHQjEd20cdAfUv7s1ho8APIwQVsllZGPsGUU2FFbKZTwkIfe2A4RZ3sCEZ+O5dEwBrNvWOL8veteVPIQQbpHuhO+7Fd1YIiELPLIHJVhT9s6nc8e6bnQBiFBf3L4rQ7fnIZxU5fdzK7pd2x0wQwdrL4553WhvrttZvwwuTdrQIVgs7SnbuV86oCMtsrgShgnLN1TXLxn1mpHeKC8XJgO/Nt8te5gn4bj6/LHIhoEC9JjgkTMI6DmIjDicGVEA4dsbHnFzWNdNZF5q/k3izm4AAEBYWLajsWSkt4cXgAj1Zem6lmmImmZrOmKm2XIChpSP1AoMK4B11fUPwOUp2tli3kMkM7oSZ6Hb1u9ouG+4d4YVAIHXWuvQOHajhJ4a7vUhAtiws2lOJuzM0W7iMk6HOycBV8GE5Ru2NQyJ3BoiAFHq5/a4ZC1nDPMEcEpZnkFnC4rkZ4Nfu+qTlW9p8CqFn9jnknU0x8yrtCMm2nISIXpi9cGDnoGvXfXJugJ42IW7cQ1LY4zRPvL0N25CQmg0MkMADEydcibw4KDXBvyhpNRel6wjRoRdPamvYO/q0WC497HQEESMq+r4igDK97T4Fcsq+12yBtZ0NBiMj2PJi6AuqqHRYLAWd9iEC+AfPllz1Hflr/5futu7FjE42xmnzEfTeru6mh4tKRHURTXURnrvY80zxtUugjAxEA3f2//ngC5AZVQqN+segDQIgJ09Gt7u0dEex3QuJIS3wzpqIr33ghi6x2uxtzbDuFLXV9o2IVlKGdTXERE8Pj+i4d6U+sYY44jhxXxNoUBT+LYmyCYBgdAuwJcG4YjBaDQYxgCheHxZDn0C6xDwUgBrgD4BPLO1/voYKONSujXdC+UxYER7H+YYAhyOMQ7HOa3TPH5oegY1/30wULCxtmn6b5YWnmEAMDTc7bRTVuHxBaB5Eo9i17x+eHxxhdW5klhM3QP0jQEUcI+z7liLxxeAxx8EKI7BIDE8/mx4vJlb+QBA0lvnOgAQ4bvOumM9mu6FpnthRCMwjCiUEQOkr7MnAms6WPNk3oBvZO4AAL28XDisGout3zAuPdA8XmjXTiWPiIgqgghx550N+VadsTNO+kLME9bubLpB12IozKDZ36h4NeCuuT7cPtuHmVN1TAoyiARtHYIT52I4eLwHHx6NIBLLgOe/caApFOoCyc+k+f9I3F3gw+P3BTEpOLivI0zJIUzJ8WLhbC8e/b7Cf+/txIHP3BsIGi8Cla/3nquXuTARfro4C4sXxDeqnxRk/NPyHBRc78EbuzuhJHNbAybKZ1i0uVO6kEjlD+SBBX48sTizh0YiciOLSEY8/x+Ouwt8SVV+Pw8s8OPuub6xL3QpBMplIsl12hEr8GrA4/el/g3++/uC8LoyMW5sFJDLpDDFaUes4K65vmEGfIkzOZtxx5xMbQVULguQeY+7ANw+27xKW2iirXSCiQMsQEYui82cal4Uz8xpmRQRdBU+vnKEeoZhRvPfz2QTbaUTCsqXmZ8MSJeDOdMehkLan3CdDJfazduk8VKHu5NDR4LBPUzITAEcP2PeUu6x0xm7LNzDBNh+WqUd1B3pMM3WR83m2UonlKhuBuOi045Ywf7GTlzqSL0buBiK4c8ZKgCAL7ASykgBRAzB67vOp2zn9V3nEbVrz2ebYeACE1Hq/6U0hDUdf2psx65Pkj9soqbuMg40d2RYZtA3COQCA+qvTjtiBf2ZQf9Zcz4pEdTUXcZ/9bUgGZUZNBCiVp2IW1y6C9qosO4BIhqUGHhl51dobO3GE0tyMSVn9G/zxVAMr+86jwP9/X4mZgb1ISKtujKkhTnzIoIGZwb9qbEddUc68LeF2bizIAezvu3DlOxeMXzdEcPxL8P46EgH/tzcgeiAkLBMzAzqh8AtuqZJ0yjbyLmawZlBEUPwQX07PqiPbwPJTM0M6ocgjez7uLhVQWXqPGc8M2gkBJdfKJn/BVdUkGKQ5efUO8l4ZtBQhNAAIukbEVEdgLsc9chixjODBqPqgL7UMFFqP7F7t4RPhPHMoF5IaD/Qv0GERw446s04tmNwrwB0AKhcdvOp9dsOHwPzTc66ZS2kM3Jm5iF7xnUI5AahZ/W2BLGuKMLn29HRehGhlguQmNu3hh0DhebNq4rOAgMPjWKuBZCZAiDChFm5yLsrH3pgaPOvB73IDl6H7BnXIfeOGTj/4QmEPr/ggKM2wVJ75df+X4hQO/zVLocI0743C9MXzR228gejZ3kx/f4CTP3ebIAyc32EiIcKwBcM7hWl3HtIznD0Vf7EgmkJ3zpp3jRMvWeWBU45TpuvS/b1/3FFABWL8sPEvM0Zn6xhwqzcpCq/n0nzpmHCrEzLm5GtFaVFV6LArgoKVUq22O+QNZDOyLsrP2U7eXfOBGuZ0xUQ0VV1fJUAsnroPQBf2eqRReTMzIurzx8LPehF9swMSZ9U6uzX08JXnSh6lQAqSosiELxhq1MWkT3jurS05ShEr7+6cOFVZ+kMyQtQRL+3zyPrCOSal9rtz82MHXQNHa8Nfm2IAKpK5h8TUe/a45J19C/ypJstB9mxeVnx54NfHDYzSKBttt6fcexEiRq2TocVQFVJ4ftQ6pC1LllLtNO8ZI5Yp4vPDQQAwcGqkuJ9w701fG4gkSjSKix1ymK6zrWZaCv5yOJ0QFg9O1Ky5IjJoVUlhduUwifWuWUtoeNnTbN1+dgZ02zZjYj6qHJ5cc1I74+cHUwkmoZfWuKVDVw6esaUbiDaEUabmwUA7ZnRUqVHTQ9/fkXRu26dEYihcPqD1CPdTu9thCiXxs2Lqq5aOX/3aJeMvT8A0xoArkuOYk1H22encfHwyaRtXDjUirZjp92ZGSSIKtKGPS10IGMKoHJFcTOA35rilI30Zwader8+KRFcONSKL/f2tiBuzAwSoKqqZP6xsa6La4cQv4TLlcKJ1N2yj/4zgyCCU7sP42TNJ4h2jD2di3aEcXLHJ/hyT31v0KgbM4OUOhbICf4qnkvjatsqVi7sKqtuXA3IH1PzzD4GZwa1fXYaoeNnMXHOtzBx9nQEpk6EJ9ibLxDtDKP7bBsuHz+DtmNnIMY3IWGuzAxiWl2xKD+uxYu4O7eqlfN3r9/e8DIA10QPD84MUobCpeZTuNR8Kr77XZkZJC+9UFK8N96rE9okyp8dXC9KXJVEci1lBimFT7s038ZE7klIABWL8sMaa48pl20rcy1kBimoDtLksf9YNiehxY+Et4nbVFLYoCkMOYY83dF0L/zBCfD4gmDdCxADoN4fYrDuhe4Lwh+c6MJmHyDwT/tmbAmR1D6Bz68qelOg7Jkampy6rnm88Pp7K9qfPan3JzgRXn/Q9NE+sU3bMAoqK0uK/ieZW5P2sKX7SJkCtid7f7x4Au7ds18PWD+DEIWtJ8JNCfX7A0laAG+XlhpZ3fg7QP6SrI14COT+jZXmLSWQN9XaApSqC1D48bdLS5NeqU2pjaooLepgJcuUkqOp2BmNwLTp0LPcNxfXs7IQmJp8SPqYKDSzJ7aiYuXClAbkKXdSm1YtOEcetVhBWlO1NRykaZhcUOQqEehZWZg8r8jKZwgtGkcf3LTstpR3eDNthLVhx+GZhtBuBs0wyyYAhM6dgoqEIUqh69xphM+fR6y7C6LSK4GTmKEHshDIm4rA1GkgZrDXjwlTv2N2US2Iafe/8Mi8VjOMmTrEfmZr/fURxh+ZaY5ZNsPtbQi3uTNRMzA5D77siabZU8ARD6IP/Kbk1i/NsmnqPOW5R4q/0CH3mhlJ5MueAHbbwxgAmscHbzDHPINK1ela5F4zKx8wWQBA75ggqwc/MGuKSMTIzvuWq0SgeXwI5k0HkTn/XlHY6qfIIjP6/MFYlvT2oy1btJmBeZUArTHDnohCpLMdPZ3tkGgEImk2BiAGebzwBXPgDeaYVvkQVJ4IN21MZao3GpZnPa7bXv+ogF7jDD2cyioUVAcLPfHCyuL/tbIcW9Jen97eVGQo401iKrKjPLejFD7VST26aeWCI1aXZcti9aaSwoZouP0OAC/bUZ6bEZEXwx7vnXZUPmBTCzCQsurGxRB5lRkz7S47rVHqGJhWJxLMYQa2nxpWtXL+7iwKF0NQqRQy8zSmRBBERfCbSLjjZrsrH3CgBRhI2TufziXil4hpmZN+OIaoakXaU/FE71pFWux9sqG6fomAngNhodO+2IGI+kigPTNW0oYdpIUAAAAiVLajsYQh5QDd5rQ7liA4KKyerVxeXJMuJ1umjwD6EaGynQ0/IANPZVDXsEOJ2lxVUrwvXSq+n/QTwAA2bGuYrUh+JkRPMGBxdIXJKHUWRK8bOl4bbmeOdCGtBdDP6oMHPVPOBB4UMUoB/iEI5j1iM5c2QLYS0Zavp4V3D96QKR1xhQAG8mTNUV8gGr4XjKUCXspAgaMOKTSDpZaIa31dsm/gJoxuwHUCGMzG2qbpsZi6hwT3ALgDpIoBNvE57DeIUiEw1wOqjoT2G0z7N68oMm8nCgdwvQCGIEJrdzbdoCkUClQ+E+WLyI0EylVALqBymTgAwKegfEDvKdoAepSoboAvMHBBIBdA1CoirQRuIUjjCyXzv0i3QVyq/D+QkEs08kWrogAAAABJRU5ErkJggg==;" vertex="1" parent="wneV9AmQcglOjSwLp_fo-46">
          <mxGeometry x="50" width="100" height="100" as="geometry" />
        </mxCell>
        <mxCell id="wneV9AmQcglOjSwLp_fo-48" value="mutex_robot" style="text;html=1;strokeColor=none;fillColor=none;align=center;verticalAlign=middle;whiteSpace=wrap;rounded=0;" vertex="1" parent="wneV9AmQcglOjSwLp_fo-46">
          <mxGeometry y="110" width="200" height="20" as="geometry" />
        </mxCell>
        <mxCell id="wneV9AmQcglOjSwLp_fo-49" style="edgeStyle=orthogonalEdgeStyle;rounded=0;orthogonalLoop=1;jettySize=auto;html=1;" edge="1" parent="1" source="wneV9AmQcglOjSwLp_fo-47" target="-7zeq6VQ6AYaPace1Qw7-4">
          <mxGeometry relative="1" as="geometry">
            <Array as="points">
              <mxPoint x="1547" y="1728" />
              <mxPoint x="1547" y="1679" />
            </Array>
          </mxGeometry>
        </mxCell>
        <mxCell id="wneV9AmQcglOjSwLp_fo-50" style="edgeStyle=orthogonalEdgeStyle;rounded=0;orthogonalLoop=1;jettySize=auto;html=1;" edge="1" parent="1" source="wneV9AmQcglOjSwLp_fo-47" target="-7zeq6VQ6AYaPace1Qw7-5">
          <mxGeometry relative="1" as="geometry">
            <Array as="points">
              <mxPoint x="1547" y="1729" />
              <mxPoint x="1547" y="1849" />
            </Array>
          </mxGeometry>
        </mxCell>
        <mxCell id="wneV9AmQcglOjSwLp_fo-54" value="" style="group" vertex="1" connectable="0" parent="1">
          <mxGeometry x="1337" y="1899" width="200" height="140" as="geometry" />
        </mxCell>
        <mxCell id="wneV9AmQcglOjSwLp_fo-55" value="" style="shape=image;verticalLabelPosition=bottom;labelBackgroundColor=#ffffff;verticalAlign=top;aspect=fixed;imageAspect=0;image=data:image/png,iVBORw0KGgoAAAANSUhEUgAAAIAAAACACAYAAADDPmHLAAAABHNCSVQICAgIfAhkiAAAAAlwSFlzAAALEwAACxMBAJqcGAAAEjNJREFUeJztnWtwVGWax//Pc07f0gk3kwVmRiWAEEKCN0ZdndFBFOUSGD9MSnedGqdqhprdWndrwQDi1MbsjIMm6Ey5n3TH1Q9b5Yi7hQRIxBoE2YHRiFNIbghIwohcBCR0bp3uPu+zH5JgyLUv59Knya8qVUn3Oc/7dN5/v7fzPO9LyDDKy4U772zI12IoFEg+CDMAvkFE8ogklxSmCJAlgBcMLwBAIUJAhIAuMC4qoYtEdB5QfyXiFmVIi6ZJk+/j4taKClLOfkJzIacdSJVnttZfb2i4WwH3EOG7UFQMRtCKshRUB4MaAKoTpfbDIwcql918yoqy7MJ1Aijf0+Lvbu9aBKilQrKUwbMddUipY2CuJUKtLxjcW7EoP+yoPwniCgGUb2nwdgXwMCspBctKgHOc9mk4RKkQMW9TSrZk9dB7FaVFEad9Gou0FsCGnU1zRKmfK4WfMCPPaX8S5CsI3lBEv68qmX/MaWdGIv0EIELrqusfIPBaMB5y2h0zEFHvCrTNVSWF74NInPZnIGkjgPJy4fDtDY+A6N8ALHDaH0tQ6pAiraKqpHBbugjBeQGI0Lqd9cvIwK/BfIvT7tiBUvhE0/DL51cUveu0L44KYN22xvnE8lsADzrph1OIqHfBtKZyRXGzUz44IoC1uw4FtQj/isD/DEBzwod0QSnEmPE7v4TLK1Yu7LK7fNsFsKG6folBeIVBM+wuO51RCidAtLpq5fzddpZrmwDKqw9mdcG/mQn/YFeZLuVlf3ZwvV0LSrYIYP32+psV6A8MFNhRntsRJQ0aa49tKilssLostrqAsur6HyslH45XfvwQU1EM6qN12+sftbwsqwyX79mjd7fnvkRET1pVxrWBvHSiu3nd26WlhhXWLRFA2TvNOazF3gJoqRX2rzUUsF15Y4+9+NAtnWbbNl0AG2ubphuRWM21sqhjH/IXVrJs06oF58y0aqoA1lc33KBI7Xb8EW2GopQcJY9abGYMgmkCeKqmfhYZ8j6DbzDL5kCUYeDS8WaETn6OSKgNotIrMIeY4ZswGRNunInJs+eBNGvWtxSkVSNZ/PyKBSfMsGeKAPq++f9nVeXHOjvwxb730NN+2QrzpuObMAnfuXcJPFmWBCZBQVpJU983oyVIeRq4sbZpel+zb9k3302VDwA9oTac2vcelGHJwB0MmiFR3v30tsNTU7eVAmXvNOcYkViNlX3+pePNrqr8fnpCbWj73LpnPMw0JwbeuXbXoZSamaQFUL5nj85a7C2rR/uhk59bad5SQidN6aZHhBm3c0R/80dbtiQ94EhaAN3tuS/ZMc+PhNqsLsIy7PCdgZKZgXmVKdyfOGXV9T+2a4Uv3Ub7iWDVGGAotCbZZeOEBbB+e/3NEHk1mcLGsQ4Bvfb09qaiRO9LSADl1QezFOgPzOxPtKBxrIWBLEMZb5bvaUmobhISQJj8VeNP9dIXYirqbu98PpF79Hgv3FBdv0SAf0zcrfRBh2CehHETRTANUWSLAkHQAQ1noeMofGgmP2JpECubLET4l7Lqxu3xRhbF1QKUb2nINgivpOaas8xDGL+QC1iOEOZIGBPEAENAAHJg4Cb0YDlC+IVcQCFcld01BIa88q9vHQjEd20cdAfUv7s1ho8APIwQVsllZGPsGUU2FFbKZTwkIfe2A4RZ3sCEZ+O5dEwBrNvWOL8veteVPIQQbpHuhO+7Fd1YIiELPLIHJVhT9s6nc8e6bnQBiFBf3L4rQ7fnIZxU5fdzK7pd2x0wQwdrL4553WhvrttZvwwuTdrQIVgs7SnbuV86oCMtsrgShgnLN1TXLxn1mpHeKC8XJgO/Nt8te5gn4bj6/LHIhoEC9JjgkTMI6DmIjDicGVEA4dsbHnFzWNdNZF5q/k3izm4AAEBYWLajsWSkt4cXgAj1Zem6lmmImmZrOmKm2XIChpSP1AoMK4B11fUPwOUp2tli3kMkM7oSZ6Hb1u9ouG+4d4YVAIHXWuvQOHajhJ4a7vUhAtiws2lOJuzM0W7iMk6HOycBV8GE5Ru2NQyJ3BoiAFHq5/a4ZC1nDPMEcEpZnkFnC4rkZ4Nfu+qTlW9p8CqFn9jnknU0x8yrtCMm2nISIXpi9cGDnoGvXfXJugJ42IW7cQ1LY4zRPvL0N25CQmg0MkMADEydcibw4KDXBvyhpNRel6wjRoRdPamvYO/q0WC497HQEESMq+r4igDK97T4Fcsq+12yBtZ0NBiMj2PJi6AuqqHRYLAWd9iEC+AfPllz1Hflr/5futu7FjE42xmnzEfTeru6mh4tKRHURTXURnrvY80zxtUugjAxEA3f2//ngC5AZVQqN+segDQIgJ09Gt7u0dEex3QuJIS3wzpqIr33ghi6x2uxtzbDuFLXV9o2IVlKGdTXERE8Pj+i4d6U+sYY44jhxXxNoUBT+LYmyCYBgdAuwJcG4YjBaDQYxgCheHxZDn0C6xDwUgBrgD4BPLO1/voYKONSujXdC+UxYER7H+YYAhyOMQ7HOa3TPH5oegY1/30wULCxtmn6b5YWnmEAMDTc7bRTVuHxBaB5Eo9i17x+eHxxhdW5klhM3QP0jQEUcI+z7liLxxeAxx8EKI7BIDE8/mx4vJlb+QBA0lvnOgAQ4bvOumM9mu6FpnthRCMwjCiUEQOkr7MnAms6WPNk3oBvZO4AAL28XDisGout3zAuPdA8XmjXTiWPiIgqgghx550N+VadsTNO+kLME9bubLpB12IozKDZ36h4NeCuuT7cPtuHmVN1TAoyiARtHYIT52I4eLwHHx6NIBLLgOe/caApFOoCyc+k+f9I3F3gw+P3BTEpOLivI0zJIUzJ8WLhbC8e/b7Cf+/txIHP3BsIGi8Cla/3nquXuTARfro4C4sXxDeqnxRk/NPyHBRc78EbuzuhJHNbAybKZ1i0uVO6kEjlD+SBBX48sTizh0YiciOLSEY8/x+Ouwt8SVV+Pw8s8OPuub6xL3QpBMplIsl12hEr8GrA4/el/g3++/uC8LoyMW5sFJDLpDDFaUes4K65vmEGfIkzOZtxx5xMbQVULguQeY+7ANw+27xKW2iirXSCiQMsQEYui82cal4Uz8xpmRQRdBU+vnKEeoZhRvPfz2QTbaUTCsqXmZ8MSJeDOdMehkLan3CdDJfazduk8VKHu5NDR4LBPUzITAEcP2PeUu6x0xm7LNzDBNh+WqUd1B3pMM3WR83m2UonlKhuBuOi045Ywf7GTlzqSL0buBiK4c8ZKgCAL7ASykgBRAzB67vOp2zn9V3nEbVrz2ebYeACE1Hq/6U0hDUdf2psx65Pkj9soqbuMg40d2RYZtA3COQCA+qvTjtiBf2ZQf9Zcz4pEdTUXcZ/9bUgGZUZNBCiVp2IW1y6C9qosO4BIhqUGHhl51dobO3GE0tyMSVn9G/zxVAMr+86jwP9/X4mZgb1ISKtujKkhTnzIoIGZwb9qbEddUc68LeF2bizIAezvu3DlOxeMXzdEcPxL8P46EgH/tzcgeiAkLBMzAzqh8AtuqZJ0yjbyLmawZlBEUPwQX07PqiPbwPJTM0M6ocgjez7uLhVQWXqPGc8M2gkBJdfKJn/BVdUkGKQ5efUO8l4ZtBQhNAAIukbEVEdgLsc9chixjODBqPqgL7UMFFqP7F7t4RPhPHMoF5IaD/Qv0GERw446s04tmNwrwB0AKhcdvOp9dsOHwPzTc66ZS2kM3Jm5iF7xnUI5AahZ/W2BLGuKMLn29HRehGhlguQmNu3hh0DhebNq4rOAgMPjWKuBZCZAiDChFm5yLsrH3pgaPOvB73IDl6H7BnXIfeOGTj/4QmEPr/ggKM2wVJ75df+X4hQO/zVLocI0743C9MXzR228gejZ3kx/f4CTP3ebIAyc32EiIcKwBcM7hWl3HtIznD0Vf7EgmkJ3zpp3jRMvWeWBU45TpuvS/b1/3FFABWL8sPEvM0Zn6xhwqzcpCq/n0nzpmHCrEzLm5GtFaVFV6LArgoKVUq22O+QNZDOyLsrP2U7eXfOBGuZ0xUQ0VV1fJUAsnroPQBf2eqRReTMzIurzx8LPehF9swMSZ9U6uzX08JXnSh6lQAqSosiELxhq1MWkT3jurS05ShEr7+6cOFVZ+kMyQtQRL+3zyPrCOSal9rtz82MHXQNHa8Nfm2IAKpK5h8TUe/a45J19C/ypJstB9mxeVnx54NfHDYzSKBttt6fcexEiRq2TocVQFVJ4ftQ6pC1LllLtNO8ZI5Yp4vPDQQAwcGqkuJ9w701fG4gkSjSKix1ymK6zrWZaCv5yOJ0QFg9O1Ky5IjJoVUlhduUwifWuWUtoeNnTbN1+dgZ02zZjYj6qHJ5cc1I74+cHUwkmoZfWuKVDVw6esaUbiDaEUabmwUA7ZnRUqVHTQ9/fkXRu26dEYihcPqD1CPdTu9thCiXxs2Lqq5aOX/3aJeMvT8A0xoArkuOYk1H22encfHwyaRtXDjUirZjp92ZGSSIKtKGPS10IGMKoHJFcTOA35rilI30Zwader8+KRFcONSKL/f2tiBuzAwSoKqqZP6xsa6La4cQv4TLlcKJ1N2yj/4zgyCCU7sP42TNJ4h2jD2di3aEcXLHJ/hyT31v0KgbM4OUOhbICf4qnkvjatsqVi7sKqtuXA3IH1PzzD4GZwa1fXYaoeNnMXHOtzBx9nQEpk6EJ9ibLxDtDKP7bBsuHz+DtmNnIMY3IWGuzAxiWl2xKD+uxYu4O7eqlfN3r9/e8DIA10QPD84MUobCpeZTuNR8Kr77XZkZJC+9UFK8N96rE9okyp8dXC9KXJVEci1lBimFT7s038ZE7klIABWL8sMaa48pl20rcy1kBimoDtLksf9YNiehxY+Et4nbVFLYoCkMOYY83dF0L/zBCfD4gmDdCxADoN4fYrDuhe4Lwh+c6MJmHyDwT/tmbAmR1D6Bz68qelOg7Jkampy6rnm88Pp7K9qfPan3JzgRXn/Q9NE+sU3bMAoqK0uK/ieZW5P2sKX7SJkCtid7f7x4Au7ds18PWD+DEIWtJ8JNCfX7A0laAG+XlhpZ3fg7QP6SrI14COT+jZXmLSWQN9XaApSqC1D48bdLS5NeqU2pjaooLepgJcuUkqOp2BmNwLTp0LPcNxfXs7IQmJp8SPqYKDSzJ7aiYuXClAbkKXdSm1YtOEcetVhBWlO1NRykaZhcUOQqEehZWZg8r8jKZwgtGkcf3LTstpR3eDNthLVhx+GZhtBuBs0wyyYAhM6dgoqEIUqh69xphM+fR6y7C6LSK4GTmKEHshDIm4rA1GkgZrDXjwlTv2N2US2Iafe/8Mi8VjOMmTrEfmZr/fURxh+ZaY5ZNsPtbQi3uTNRMzA5D77siabZU8ARD6IP/Kbk1i/NsmnqPOW5R4q/0CH3mhlJ5MueAHbbwxgAmscHbzDHPINK1ela5F4zKx8wWQBA75ggqwc/MGuKSMTIzvuWq0SgeXwI5k0HkTn/XlHY6qfIIjP6/MFYlvT2oy1btJmBeZUArTHDnohCpLMdPZ3tkGgEImk2BiAGebzwBXPgDeaYVvkQVJ4IN21MZao3GpZnPa7bXv+ogF7jDD2cyioUVAcLPfHCyuL/tbIcW9Jen97eVGQo401iKrKjPLejFD7VST26aeWCI1aXZcti9aaSwoZouP0OAC/bUZ6bEZEXwx7vnXZUPmBTCzCQsurGxRB5lRkz7S47rVHqGJhWJxLMYQa2nxpWtXL+7iwKF0NQqRQy8zSmRBBERfCbSLjjZrsrH3CgBRhI2TufziXil4hpmZN+OIaoakXaU/FE71pFWux9sqG6fomAngNhodO+2IGI+kigPTNW0oYdpIUAAAAiVLajsYQh5QDd5rQ7liA4KKyerVxeXJMuJ1umjwD6EaGynQ0/IANPZVDXsEOJ2lxVUrwvXSq+n/QTwAA2bGuYrUh+JkRPMGBxdIXJKHUWRK8bOl4bbmeOdCGtBdDP6oMHPVPOBB4UMUoB/iEI5j1iM5c2QLYS0Zavp4V3D96QKR1xhQAG8mTNUV8gGr4XjKUCXspAgaMOKTSDpZaIa31dsm/gJoxuwHUCGMzG2qbpsZi6hwT3ALgDpIoBNvE57DeIUiEw1wOqjoT2G0z7N68oMm8nCgdwvQCGIEJrdzbdoCkUClQ+E+WLyI0EylVALqBymTgAwKegfEDvKdoAepSoboAvMHBBIBdA1CoirQRuIUjjCyXzv0i3QVyq/D+QkEs08kWrogAAAABJRU5ErkJggg==;" vertex="1" parent="wneV9AmQcglOjSwLp_fo-54">
          <mxGeometry x="50" width="100" height="100" as="geometry" />
        </mxCell>
        <mxCell id="wneV9AmQcglOjSwLp_fo-56" value="mutex_robotStarted" style="text;html=1;strokeColor=none;fillColor=none;align=center;verticalAlign=middle;whiteSpace=wrap;rounded=0;" vertex="1" parent="wneV9AmQcglOjSwLp_fo-54">
          <mxGeometry y="110" width="200" height="20" as="geometry" />
        </mxCell>
        <mxCell id="wneV9AmQcglOjSwLp_fo-57" style="edgeStyle=orthogonalEdgeStyle;rounded=0;orthogonalLoop=1;jettySize=auto;html=1;" edge="1" parent="1" source="wneV9AmQcglOjSwLp_fo-55" target="-7zeq6VQ6AYaPace1Qw7-5">
          <mxGeometry relative="1" as="geometry">
            <Array as="points">
              <mxPoint x="1437" y="1859" />
            </Array>
          </mxGeometry>
        </mxCell>
        <mxCell id="wneV9AmQcglOjSwLp_fo-64" style="edgeStyle=orthogonalEdgeStyle;rounded=0;orthogonalLoop=1;jettySize=auto;html=1;" edge="1" parent="1" source="wneV9AmQcglOjSwLp_fo-47" target="-7zeq6VQ6AYaPace1Qw7-6">
          <mxGeometry relative="1" as="geometry">
            <Array as="points">
              <mxPoint x="1547" y="1728" />
              <mxPoint x="1547" y="2029" />
            </Array>
          </mxGeometry>
        </mxCell>
        <mxCell id="wneV9AmQcglOjSwLp_fo-65" style="edgeStyle=orthogonalEdgeStyle;rounded=0;orthogonalLoop=1;jettySize=auto;html=1;" edge="1" parent="1" source="wneV9AmQcglOjSwLp_fo-56" target="-7zeq6VQ6AYaPace1Qw7-6">
          <mxGeometry relative="1" as="geometry">
            <Array as="points">
              <mxPoint x="1437" y="2049" />
            </Array>
          </mxGeometry>
        </mxCell>
        <mxCell id="wneV9AmQcglOjSwLp_fo-66" style="edgeStyle=orthogonalEdgeStyle;rounded=0;orthogonalLoop=1;jettySize=auto;html=1;" edge="1" parent="1" source="wneV9AmQcglOjSwLp_fo-47" target="-7zeq6VQ6AYaPace1Qw7-19">
          <mxGeometry relative="1" as="geometry">
            <Array as="points">
              <mxPoint x="1317" y="1728" />
              <mxPoint x="1317" y="1689" />
            </Array>
          </mxGeometry>
        </mxCell>
        <mxCell id="wneV9AmQcglOjSwLp_fo-67" style="edgeStyle=orthogonalEdgeStyle;rounded=0;orthogonalLoop=1;jettySize=auto;html=1;" edge="1" parent="1" source="wneV9AmQcglOjSwLp_fo-47" target="-7zeq6VQ6AYaPace1Qw7-14">
          <mxGeometry relative="1" as="geometry">
            <Array as="points">
              <mxPoint x="1317" y="1728" />
              <mxPoint x="1317" y="2029" />
            </Array>
          </mxGeometry>
        </mxCell>
        <mxCell id="wneV9AmQcglOjSwLp_fo-68" style="edgeStyle=orthogonalEdgeStyle;rounded=0;orthogonalLoop=1;jettySize=auto;html=1;" edge="1" parent="1" source="wneV9AmQcglOjSwLp_fo-55" target="-7zeq6VQ6AYaPace1Qw7-19">
          <mxGeometry relative="1" as="geometry">
            <Array as="points">
              <mxPoint x="1337" y="1949" />
              <mxPoint x="1337" y="1669" />
            </Array>
          </mxGeometry>
        </mxCell>
        <mxCell id="wneV9AmQcglOjSwLp_fo-69" style="edgeStyle=orthogonalEdgeStyle;rounded=0;orthogonalLoop=1;jettySize=auto;html=1;" edge="1" parent="1" source="wneV9AmQcglOjSwLp_fo-55" target="-7zeq6VQ6AYaPace1Qw7-14">
          <mxGeometry relative="1" as="geometry">
            <Array as="points">
              <mxPoint x="1337" y="1949" />
              <mxPoint x="1337" y="2049" />
            </Array>
          </mxGeometry>
        </mxCell>
        <mxCell id="wneV9AmQcglOjSwLp_fo-70" style="edgeStyle=orthogonalEdgeStyle;rounded=0;orthogonalLoop=1;jettySize=auto;html=1;" edge="1" parent="1" source="wneV9AmQcglOjSwLp_fo-55" target="-7zeq6VQ6AYaPace1Qw7-15">
          <mxGeometry relative="1" as="geometry">
            <Array as="points">
              <mxPoint x="1337" y="1949" />
              <mxPoint x="1337" y="1869" />
            </Array>
          </mxGeometry>
        </mxCell>
        <mxCell id="wneV9AmQcglOjSwLp_fo-71" style="edgeStyle=orthogonalEdgeStyle;rounded=0;orthogonalLoop=1;jettySize=auto;html=1;" edge="1" parent="1" source="wneV9AmQcglOjSwLp_fo-47" target="-7zeq6VQ6AYaPace1Qw7-15">
          <mxGeometry relative="1" as="geometry">
            <Array as="points">
              <mxPoint x="1317" y="1728" />
              <mxPoint x="1317" y="1849" />
            </Array>
          </mxGeometry>
        </mxCell>
      </root>
    </mxGraphModel>
  </diagram>
</mxfile>
